<svg width="58" height="57" viewBox="0 0 58 57" fill="none" xmlns="http://www.w3.org/2000/svg">
<path d="M26.7493 0.164386C15.8243 1.35189 7.03678 10.1394 5.84928 20.8269C4.66178 31.9894 11.0743 41.9644 20.8118 45.7644C21.5243 46.0019 22.2368 45.5269 22.2368 44.5769V40.7769C22.2368 40.7769 21.2868 41.0144 20.0993 41.0144C16.7743 41.0144 15.3493 38.1644 15.1118 36.5019C14.8743 35.5519 14.3993 34.8394 13.6868 34.1269C12.9743 33.8894 12.7368 33.8894 12.7368 33.6519C12.7368 33.1769 13.4493 33.1769 13.6868 33.1769C15.1118 33.1769 16.2993 34.8394 16.7743 35.5519C17.9618 37.4519 19.3868 37.9269 20.0993 37.9269C21.0493 37.9269 21.7618 37.6894 22.2368 37.4519C22.4743 35.7894 23.1868 34.1269 24.6118 33.1769C19.1493 31.9894 15.1118 28.9019 15.1118 23.6769C15.1118 21.0644 16.2993 18.4519 17.9618 16.5519C17.7243 16.0769 17.4868 14.8894 17.4868 13.2269C17.4868 12.2769 17.4868 10.8519 18.1993 9.42689C18.1993 9.42689 21.5243 9.42689 24.8493 12.5144C26.0368 12.0394 27.6993 11.8019 29.3618 11.8019C31.0243 11.8019 32.6868 12.0394 34.1118 12.5144C37.1993 9.42689 40.7618 9.42689 40.7618 9.42689C41.2368 10.8519 41.2368 12.2769 41.2368 13.2269C41.2368 15.1269 40.9993 16.0769 40.7618 16.5519C42.4243 18.4519 43.6118 20.8269 43.6118 23.6769C43.6118 28.9019 39.5743 31.9894 34.1118 33.1769C35.5368 34.3644 36.4868 36.5019 36.4868 38.6394V44.8144C36.4868 45.5269 37.1993 46.2394 38.1493 46.0019C46.9368 42.4394 53.1118 33.8894 53.1118 23.9144C53.1118 9.66439 40.9993 -1.49811 26.7493 0.164386Z" fill="#555555"/>
</svg>
