<svg width="47" height="48" viewBox="0 0 47 48" fill="none" xmlns="http://www.w3.org/2000/svg">
<path d="M42.7028 20.083H41.1253V20H23.5003V28H34.5678C32.9532 32.657 28.6145 36 23.5003 36C17.0114 36 11.7503 30.627 11.7503 24C11.7503 17.373 17.0114 12 23.5003 12C26.4956 12 29.2206 13.154 31.2955 15.039L36.8346 9.382C33.337 6.053 28.6586 4 23.5003 4C12.6854 4 3.91699 12.955 3.91699 24C3.91699 35.045 12.6854 44 23.5003 44C34.3152 44 43.0837 35.045 43.0837 24C43.0837 22.659 42.9485 21.35 42.7028 20.083Z" fill="#555555"/>
<path d="M6.1748 14.691L12.6089 19.51C14.3499 15.108 18.5662 12 23.5002 12C26.4954 12 29.2205 13.154 31.2953 15.039L36.8345 9.382C33.3369 6.053 28.6584 4 23.5002 4C15.9782 4 9.45501 8.337 6.1748 14.691Z" fill="#7E7E7E"/>
<path d="M23.5005 44C28.5588 44 33.1551 42.023 36.6301 38.808L30.5691 33.57C28.6029 35.091 26.1589 36 23.5005 36C18.4068 36 14.0819 32.683 12.4525 28.054L6.06641 33.079C9.30745 39.556 15.8894 44 23.5005 44Z" fill="#555555"/>
<path d="M42.7024 20.083H41.125V20H23.5V28H34.5675C33.792 30.237 32.383 32.166 30.5657 33.571C30.5666 33.57 30.5676 33.57 30.5686 33.569L36.6296 38.807C36.2008 39.205 43.0833 34 43.0833 24C43.0833 22.659 42.9482 21.35 42.7024 20.083Z" fill="#555555"/>
</svg>
