<svg width="42" height="42" viewBox="0 0 42 42" fill="none" xmlns="http://www.w3.org/2000/svg">
<g clip-path="url(#clip0_2156_2201)">
<path d="M24.6941 21.0001C24.6941 22.9715 23.0958 24.5698 21.1244 24.5698C19.153 24.5698 17.5547 22.9715 17.5547 21.0001C17.5547 19.0287 19.153 17.4304 21.1244 17.4304C23.0958 17.4304 24.6941 19.0287 24.6941 21.0001Z" fill="white"/>
<path d="M27.1532 10.2117H15.0956C12.4709 10.2117 10.3359 12.3467 10.3359 14.9713V27.029C10.3359 29.6536 12.4709 31.7886 15.0956 31.7886H27.1532C29.7779 31.7886 31.9129 29.6536 31.9129 27.029V14.9713C31.9129 12.3467 29.7779 10.2117 27.1532 10.2117ZM21.1244 26.9497C17.8438 26.9497 15.1749 24.2807 15.1749 21.0001C15.1749 17.7195 17.8438 15.0506 21.1244 15.0506C24.405 15.0506 27.0739 17.7195 27.0739 21.0001C27.0739 24.2807 24.405 26.9497 21.1244 26.9497ZM27.9465 15.3679C27.2893 15.3679 26.7566 14.8353 26.7566 14.178C26.7566 13.5208 27.2893 12.9881 27.9465 12.9881C28.6038 12.9881 29.1364 13.5208 29.1364 14.178C29.1364 14.8353 28.6038 15.3679 27.9465 15.3679Z" fill="white"/>
<path d="M30.7227 0.692261H11.5255C5.62064 0.692261 0.816406 5.4965 0.816406 11.4014V30.5985C0.816406 36.5034 5.62064 41.3076 11.5255 41.3076H30.7227C36.6276 41.3076 41.4318 36.5034 41.4318 30.5985V11.4014C41.4318 5.4965 36.6276 0.692261 30.7227 0.692261ZM34.2924 27.0288C34.2924 30.9654 31.0895 34.1682 27.1529 34.1682H15.0953C11.1587 34.1682 7.95583 30.9654 7.95583 27.0288V14.9711C7.95583 11.0345 11.1587 7.83168 15.0953 7.83168H27.1529C31.0895 7.83168 34.2924 11.0345 34.2924 14.9711V27.0288Z" fill="white"/>
</g>
<defs>
<clipPath id="clip0_2156_2201">
<rect width="40.6154" height="40.6154" fill="white" transform="translate(0.816406 0.692261)"/>
</clipPath>
</defs>
</svg>
