<svg width="16" height="8" viewBox="0 0 16 8" fill="none" xmlns="http://www.w3.org/2000/svg">
<path d="M15.6478 0.305919C15.4222 0.110039 15.1163 0 14.7974 0C14.4784 0 14.1725 0.110039 13.947 0.305919L7.99274 5.47795L2.03852 0.305919C1.81166 0.115591 1.50781 0.0102748 1.19242 0.0126554C0.877028 0.015036 0.575334 0.124922 0.352311 0.318647C0.129289 0.512371 0.00278568 0.774433 4.57764e-05 1.04839C-0.00269508 1.32235 0.118547 1.58628 0.33766 1.78334L7.14231 7.69408C7.36788 7.88996 7.67378 8 7.99274 8C8.3117 8 8.6176 7.88996 8.84317 7.69408L15.6478 1.78334C15.8733 1.5874 16 1.32169 16 1.04463C16 0.767573 15.8733 0.501858 15.6478 0.305919Z" fill="#3B8174"/>
</svg>
