<svg width="48" height="48" viewBox="0 0 48 48" fill="none" xmlns="http://www.w3.org/2000/svg">
<rect x="0.5" y="0.5" width="47" height="47" rx="5.5" stroke="#219D80"/>
<g clip-path="url(#clip0_910_376)">
<path d="M33.7556 32.5778L28.0682 26.8904C29.1699 25.5296 29.8332 23.8004 29.8332 21.9171C29.8332 17.5521 26.2815 14.0005 21.9166 14.0005C17.5516 14.0005 14 17.5521 14 21.9171C14 26.282 17.5516 29.8337 21.9166 29.8337C23.7999 29.8337 25.5291 29.1703 26.8899 28.0687L32.5773 33.7561C32.7398 33.9186 32.9531 34.0003 33.1665 34.0003C33.3798 34.0003 33.5932 33.9186 33.7557 33.7561C34.0815 33.4303 34.0815 32.9036 33.7556 32.5778ZM21.9166 28.167C18.47 28.167 15.6667 25.3637 15.6667 21.9171C15.6667 18.4704 18.47 15.6671 21.9166 15.6671C25.3632 15.6671 28.1665 18.4704 28.1665 21.9171C28.1665 25.3637 25.3632 28.167 21.9166 28.167Z" fill="#219D80"/>
</g>
<defs>
<clipPath id="clip0_910_376">
<rect x="14" y="14" width="20" height="20" fill="white"/>
</clipPath>
</defs>
</svg>
