<svg width="362" height="241" viewBox="0 0 362 241" fill="none" xmlns="http://www.w3.org/2000/svg">
<path d="M362 241V0L318.951 42.9738C299.822 62.1195 299.822 93.1619 318.951 112.308L319.993 113.313C322.596 115.915 322.596 120.146 319.993 122.782C317.354 125.384 313.119 125.384 310.515 122.782L252.816 65.137C243.755 56.0844 229.035 56.0844 219.974 65.137C210.878 74.1896 210.878 88.8957 219.974 97.9483L303.225 181.156C305.689 183.584 305.689 187.538 303.225 190C300.794 192.428 296.837 192.428 294.372 190L238.165 133.812C222.092 117.788 196.089 117.788 180.05 133.812C163.976 149.836 163.976 175.849 180.05 191.873L216.815 228.604L194.561 231.656L93.5354 130.725C82.0442 119.21 63.3665 119.21 51.8406 130.725C40.3493 142.24 40.3493 160.9 51.8406 172.381C57.2911 177.826 81.454 201.966 84.9604 205.469C87.2169 207.724 87.2169 211.4 84.9256 213.69L84.8215 213.794C82.6343 215.979 79.0585 215.979 76.8714 213.794L66.4216 203.354C53.8194 190.763 33.3366 190.763 20.6997 203.354L0 241" fill="#F3FFFD" fill-opacity="0.2"/>
</svg>
