<svg width="34" height="30" viewBox="0 0 34 30" fill="none" xmlns="http://www.w3.org/2000/svg">
<path d="M12.5416 0C11.9706 0 11.5077 0.462883 11.5077 1.03388C11.5077 1.76915 10.7586 2.27301 10.0491 2.07991C8.98432 1.79011 7.88501 1.64224 6.78569 1.64224C5.46416 1.64224 4.14263 1.85355 2.87274 2.27745C-0.311654 3.34041 -0.313126 7.38315 2.02365 9.7935L3.43902 11.2534C3.70477 11.5275 4.07026 11.6823 4.45205 11.6823C5.23129 11.6823 5.86299 12.314 5.86299 13.0932V13.1564C5.86299 13.5395 6.0082 13.912 6.29341 14.1678C7.23381 15.011 8.31608 15.6021 9.45443 15.9448C10.5633 16.2787 11.4896 17.2034 11.4896 18.3615C11.4896 19.558 10.5197 20.5279 9.32323 20.5279H8.78487C7.29107 20.5279 6.0801 21.7389 6.0801 23.2327V26.1265C6.0801 28.1793 7.70839 29.8588 9.69853 29.8588H27.7907C30.794 29.8588 33.2183 27.3581 33.2183 24.2603V9.99999C33.2183 4.47715 28.7412 0 23.2183 0H12.5416ZM-nan -nanL9.49951 11.9622V9.95605C9.49951 8.84809 8.60133 7.94991 7.49337 7.94991H5.97134C5.58984 7.94991 5.22462 7.79531 4.95906 7.52139C4.26034 6.80067 4.52953 5.6096 5.52303 5.46605C5.94055 5.40573 6.36243 5.37505 6.78569 5.37459C9.21004 5.37459 11.4716 6.345 13.1903 8.09921L15.3795 10.3573C15.5811 10.5653 15.5811 10.8958 15.3795 11.1037C14.9249 11.5771 14.3838 11.9528 13.7876 12.2091C13.1913 12.4654 12.5517 12.5971 11.9058 12.5967C11.0554 12.5967 10.2232 12.3728 9.49951 11.9622L-nan -nanZM29.5999 24.2603C29.5999 25.2867 28.7857 26.1265 27.7907 26.1265C26.7956 26.1265 25.9815 25.2867 25.9815 24.2603C25.9815 22.199 24.3104 20.5279 22.2491 20.5279H18.0257C16.4243 20.5279 15.1262 19.2298 15.1262 17.6284C15.1262 16.4574 15.8611 15.439 16.8117 14.7551C17.2111 14.4678 17.5915 14.1407 17.9485 13.7724C18.1467 13.568 18.4744 13.5677 18.6729 13.7717L22.9023 18.1189C23.24 18.466 23.7036 18.6618 24.1879 18.6618C25.1784 18.6618 25.9815 17.8587 25.9815 16.8682V16.7911C25.9815 16.3034 25.791 15.835 25.4506 15.4857L15.3596 5.12894C15.2099 4.97534 15.1262 4.76937 15.1262 4.55491C15.1262 4.10062 15.4944 3.73235 15.9487 3.73235H22.363C26.3598 3.73235 29.5999 6.97241 29.5999 10.9692V24.2603Z" fill="#219D80"/>
</svg>
