<svg width="121" height="120" viewBox="0 0 121 120" fill="none" xmlns="http://www.w3.org/2000/svg">
<ellipse cx="60.7499" cy="60" rx="59.9999" ry="60" fill="white"/>
<path d="M116.25 60C116.25 90.6518 91.4017 115.5 60.7499 115.5C30.0982 115.5 5.25 90.6518 5.25 60C5.25 29.3482 30.0982 4.5 60.7499 4.5C91.4017 4.5 116.25 29.3482 116.25 60Z" stroke="#4D7AD2" stroke-opacity="0.15" stroke-width="9"/>
<g clip-path="url(#clip0_2273_2440)">
<path d="M64.8751 48.5531V44.9308C61.24 40.2515 58.8036 34.7085 57.9013 28.7917C57.6306 27.0515 55.4521 26.3683 54.3177 27.7218C51.5978 30.9316 49.458 34.6956 48.0142 38.8722C52.4228 43.8093 58.3267 47.1996 64.8751 48.5531ZM79.3126 35.2499C73.615 35.2499 69.0001 39.8777 69.0001 45.5753V53.2324C55.5423 52.4332 44.1212 44.1445 38.965 32.3882C38.256 30.7769 35.9744 30.6867 35.2267 32.2722C33.0869 36.7968 31.8752 41.8499 31.8752 47.1867C31.8752 56.3132 36.2709 64.8339 42.8451 71.1503C44.5466 72.7875 46.2095 74.141 47.8595 75.3785L29.3099 80.0191C27.9306 80.3671 27.3119 81.9656 28.0853 83.1644C30.3283 86.632 35.8712 92.5101 47.8337 93C48.865 93.0386 49.8962 92.6648 50.6826 91.9816L59.0872 84.75H69.0001C80.3954 84.75 89.6251 75.5332 89.6251 64.1378V43.4999L93.7501 35.2499H79.3126ZM79.3126 47.6378C78.1782 47.6378 77.2501 46.7097 77.2501 45.5753C77.2501 44.441 78.1782 43.5128 79.3126 43.5128C80.447 43.5128 81.3751 44.441 81.3751 45.5753C81.3751 46.7097 80.447 47.6378 79.3126 47.6378Z" fill="#4D7AD2"/>
</g>
<mask id="path-5-inside-1_2273_2440" fill="white">
<path fill-rule="evenodd" clip-rule="evenodd" d="M90.3937 7.83451C79.1151 1.4253 66.1007 -1.13614 53.3075 0.463424C50.8428 0.77159 49.2682 3.16183 49.7601 5.59654C50.2515 8.02942 52.6207 9.58352 55.0877 9.31102C56.9468 9.10567 58.8361 9.00024 60.7499 9.00024C88.9164 9.00024 111.75 31.8337 111.75 60.0002C111.75 88.1668 88.9164 111 60.7499 111C32.5834 111 9.74997 88.1668 9.74997 60.0002C9.74997 46.9567 14.6466 35.0568 22.7019 26.0385C24.3574 24.1851 24.4638 21.3498 22.7628 19.538C21.0616 17.726 18.1993 17.6255 16.5198 19.4577C7.80849 28.9609 2.36101 41.0535 1.055 53.9592C-0.402537 68.3622 3.3965 82.8066 11.7516 94.6288C20.1067 106.451 32.4544 114.854 46.5178 118.288C60.5812 121.722 75.412 119.955 88.2753 113.314C101.139 106.673 111.167 95.6046 116.512 82.1506C121.856 68.6967 122.156 53.764 117.356 40.1063C112.556 26.4486 102.98 14.9868 90.3937 7.83451Z"/>
</mask>
<path fill-rule="evenodd" clip-rule="evenodd" d="M90.3937 7.83451C79.1151 1.4253 66.1007 -1.13614 53.3075 0.463424C50.8428 0.77159 49.2682 3.16183 49.7601 5.59654C50.2515 8.02942 52.6207 9.58352 55.0877 9.31102C56.9468 9.10567 58.8361 9.00024 60.7499 9.00024C88.9164 9.00024 111.75 31.8337 111.75 60.0002C111.75 88.1668 88.9164 111 60.7499 111C32.5834 111 9.74997 88.1668 9.74997 60.0002C9.74997 46.9567 14.6466 35.0568 22.7019 26.0385C24.3574 24.1851 24.4638 21.3498 22.7628 19.538C21.0616 17.726 18.1993 17.6255 16.5198 19.4577C7.80849 28.9609 2.36101 41.0535 1.055 53.9592C-0.402537 68.3622 3.3965 82.8066 11.7516 94.6288C20.1067 106.451 32.4544 114.854 46.5178 118.288C60.5812 121.722 75.412 119.955 88.2753 113.314C101.139 106.673 111.167 95.6046 116.512 82.1506C121.856 68.6967 122.156 53.764 117.356 40.1063C112.556 26.4486 102.98 14.9868 90.3937 7.83451Z" fill="#C4C4C4"/>
<path d="M90.3937 7.83451L85.9472 15.6594V15.6594L90.3937 7.83451ZM46.5178 118.288L44.3829 127.031H44.3829L46.5178 118.288ZM88.2753 113.314L92.4041 121.311L88.2753 113.314ZM116.512 82.1506L108.147 78.8281L116.512 82.1506ZM117.356 40.1063L108.865 43.0904L117.356 40.1063ZM22.7019 26.0385L15.9897 20.043L22.7019 26.0385ZM53.3075 0.463424L52.1909 -8.46704L53.3075 0.463424ZM54.4241 9.39389C65.2982 8.03429 76.3604 10.2116 85.9472 15.6594L94.8403 0.00967259C81.8697 -7.361 66.9033 -10.3066 52.1909 -8.46704L54.4241 9.39389ZM56.0758 18.2566C57.6074 18.0874 59.1668 18.0002 60.7499 18.0002V0.000244094C58.5053 0.000244094 56.2862 0.123899 54.0996 0.365424L56.0758 18.2566ZM60.7499 18.0002C83.9458 18.0002 102.75 36.8043 102.75 60.0002H120.75C120.75 26.8632 93.887 0.000244094 60.7499 0.000244094V18.0002ZM102.75 60.0002C102.75 83.1962 83.9458 102 60.7499 102V120C93.887 120 120.75 93.1373 120.75 60.0002H102.75ZM60.7499 102C37.554 102 18.75 83.1962 18.75 60.0002H0.749969C0.749969 93.1373 27.6129 120 60.7499 120V102ZM18.75 60.0002C18.75 49.2527 22.7751 39.4667 29.4141 32.034L15.9897 20.043C6.51812 30.6469 0.749969 44.6607 0.749969 60.0002H18.75ZM10.0093 54.8653C11.1194 43.8957 15.7497 33.6168 23.1542 25.5392L9.88542 13.3761C-0.132726 24.305 -6.39735 38.2114 -7.89927 53.053L10.0093 54.8653ZM19.1014 89.4345C11.9995 79.3856 8.77036 67.1079 10.0093 54.8653L-7.89927 53.053C-9.57544 69.6165 -5.20654 86.2276 4.40181 99.8231L19.1014 89.4345ZM48.6526 109.545C36.6987 106.626 26.2032 99.4834 19.1014 89.4345L4.40181 99.8231C14.0102 113.419 28.21 123.082 44.3829 127.031L48.6526 109.545ZM84.1465 105.317C73.2127 110.962 60.6065 112.463 48.6526 109.545L44.3829 127.031C60.5559 130.98 77.6113 128.948 92.4041 121.311L84.1465 105.317ZM108.147 78.8281C103.605 90.2639 95.0804 99.6718 84.1465 105.317L92.4041 121.311C107.197 113.674 118.73 100.945 124.876 85.4732L108.147 78.8281ZM108.865 43.0904C112.945 54.6995 112.69 67.3922 108.147 78.8281L124.876 85.4732C131.022 70.0011 131.367 52.8286 125.847 37.1223L108.865 43.0904ZM85.9472 15.6594C96.6455 21.7388 104.785 31.4813 108.865 43.0904L125.847 37.1223C120.327 21.4159 109.315 8.23486 94.8403 0.00967131L85.9472 15.6594ZM29.3243 13.3779C24.3547 8.08455 15.4073 7.35222 9.88542 13.3761L23.1542 25.5392C20.9913 27.8987 17.7686 27.3675 16.2014 25.6982L29.3243 13.3779ZM29.4141 32.034C33.8428 27.0759 34.55 18.944 29.3243 13.3779L16.2014 25.6982C14.3777 23.7556 14.872 21.2943 15.9897 20.043L29.4141 32.034ZM40.9383 7.37862C42.4488 14.8562 49.478 18.9854 56.0758 18.2566L54.0996 0.365424C55.7633 0.181654 58.0543 1.20268 58.5819 3.81446L40.9383 7.37862ZM52.1909 -8.46704C44.0842 -7.45345 39.5009 0.263181 40.9383 7.37862L58.5819 3.81446C59.0356 6.06048 57.6014 8.99663 54.4241 9.39389L52.1909 -8.46704Z" fill="#4D7AD2" mask="url(#path-5-inside-1_2273_2440)"/>
<defs>
<clipPath id="clip0_2273_2440">
<rect x="27.75" y="27" width="65.9999" height="66" rx="10" fill="white"/>
</clipPath>
</defs>
</svg>
