<svg width="121" height="120" viewBox="0 0 121 120" fill="none" xmlns="http://www.w3.org/2000/svg">
<ellipse cx="60.7499" cy="60" rx="59.9999" ry="60" fill="white"/>
<path d="M116.25 60C116.25 90.6518 91.4017 115.5 60.7499 115.5C30.0982 115.5 5.25 90.6518 5.25 60C5.25 29.3482 30.0982 4.5 60.7499 4.5C91.4017 4.5 116.25 29.3482 116.25 60Z" stroke="#219D80" stroke-opacity="0.15" stroke-width="9"/>
<g clip-path="url(#clip0_1166_25)">
<path d="M40.9496 43.9C43.6824 43.9 45.8996 41.6828 45.8996 38.95C45.8996 36.2172 43.6824 34 40.9496 34C38.2168 34 35.9996 36.2172 35.9996 38.95C35.9996 41.6828 38.2168 43.9 40.9496 43.9ZM80.5496 43.9C83.2824 43.9 85.4996 41.6828 85.4996 38.95C85.4996 36.2172 83.2824 34 80.5496 34C77.8167 34 75.5996 36.2172 75.5996 38.95C75.5996 41.6828 77.8167 43.9 80.5496 43.9ZM93.5124 82.2728L88.9749 70.9291L84.7364 75.7141L84.5302 77.5909L87.3867 84.7272C87.9024 86.0162 89.1399 86.8 90.4496 86.8C90.8621 86.8 91.2746 86.7278 91.6767 86.5628C93.368 85.8822 94.193 83.9641 93.5124 82.2728ZM89.9855 60.6372L88.0777 52.3666C87.6033 50.3041 86.1596 48.5716 84.2105 47.7362C82.3027 46.9112 80.1886 47.0453 78.4252 48.0766C76.0843 49.4584 74.3311 51.6344 73.4649 54.2022L72.2996 57.6981L70.6496 58.75V48.85C70.6496 47.9425 69.9071 47.2 68.9996 47.2H52.4996C51.5921 47.2 50.8496 47.9425 50.8496 48.85V58.75L49.1893 57.6981L48.024 54.2022C47.168 51.6241 45.4046 49.4584 43.0636 48.0766C41.2899 47.0453 39.1861 46.9112 37.2783 47.7362C35.3293 48.5716 33.8855 50.3041 33.4112 52.3666L31.5137 60.6372C31.0393 62.6997 31.5858 64.8859 32.9987 66.4844L39.9286 74.3116L40.9702 83.8609C41.1558 85.5419 42.579 86.8 44.2496 86.8C44.3733 86.8 44.4868 86.7897 44.6105 86.7794C46.4255 86.5834 47.7249 84.9541 47.529 83.1391L46.4874 73.5691C46.3327 72.2284 45.7758 70.9806 44.8786 69.9597L40.4133 64.9066L42.2283 57.6569L42.9296 59.7606C43.3524 61.0497 44.1568 62.1737 45.4561 63.1225L50.7258 66.4741C51.2002 66.7731 51.9736 66.9484 52.4996 66.9897H68.9996C69.5255 66.9484 70.2989 66.7731 70.7733 66.4741L76.043 63.1225C77.3424 62.1737 78.1467 61.06 78.5696 59.7606L79.2708 57.6569L81.0858 64.9066L76.6205 69.9597C75.7233 70.9806 75.1664 72.2284 75.0117 73.5691L73.9702 83.1391C73.7743 84.9541 75.0839 86.5834 76.8886 86.7794C77.0124 86.7897 77.1258 86.8 77.2496 86.8C78.9099 86.8 80.3433 85.5522 80.5289 83.8609L81.5705 74.3116L88.5005 66.4844C89.903 64.8859 90.4599 62.6997 89.9855 60.6372ZM32.5243 70.9291L27.9868 82.2728C27.3062 83.9641 28.1312 85.8822 29.8224 86.5628C31.5549 87.2434 33.4421 86.3875 34.1124 84.7272L36.969 77.5909L36.7627 75.7141L32.5243 70.9291Z" fill="#219D80"/>
</g>
<mask id="path-5-inside-1_1166_25" fill="white">
<path fill-rule="evenodd" clip-rule="evenodd" d="M78.3929 2.65258C67.3744 -0.737261 55.6446 -0.872137 44.6022 2.21374C42.2124 2.88158 41.0089 5.47524 41.8536 7.80839C42.6984 10.1416 45.2713 11.3275 47.6702 10.6928C51.8445 9.58839 56.2285 9 60.7499 9C88.9164 9 111.75 31.8335 111.75 60C111.75 88.1665 88.9164 111 60.7499 111C32.5834 111 9.74999 88.1665 9.74999 60C9.74999 59.6798 9.75294 59.3604 9.75881 59.0416C9.80457 56.5586 8.03692 54.3419 5.56764 54.0769C3.09623 53.8116 0.859918 55.6011 0.780572 58.0855C0.414656 69.5425 3.33899 80.8999 9.25391 90.792C15.941 101.975 26.0869 110.678 38.1581 115.584C50.2292 120.49 63.5695 121.334 76.1624 117.987C88.7553 114.64 99.9164 107.284 107.959 97.0318C116.001 86.7795 120.487 74.1879 120.739 61.1602C120.991 48.1324 116.995 35.3768 109.355 24.8213C101.715 14.2657 90.847 6.48409 78.3929 2.65258Z"/>
</mask>
<path fill-rule="evenodd" clip-rule="evenodd" d="M78.3929 2.65258C67.3744 -0.737261 55.6446 -0.872137 44.6022 2.21374C42.2124 2.88158 41.0089 5.47524 41.8536 7.80839C42.6984 10.1416 45.2713 11.3275 47.6702 10.6928C51.8445 9.58839 56.2285 9 60.7499 9C88.9164 9 111.75 31.8335 111.75 60C111.75 88.1665 88.9164 111 60.7499 111C32.5834 111 9.74999 88.1665 9.74999 60C9.74999 59.6798 9.75294 59.3604 9.75881 59.0416C9.80457 56.5586 8.03692 54.3419 5.56764 54.0769C3.09623 53.8116 0.859918 55.6011 0.780572 58.0855C0.414656 69.5425 3.33899 80.8999 9.25391 90.792C15.941 101.975 26.0869 110.678 38.1581 115.584C50.2292 120.49 63.5695 121.334 76.1624 117.987C88.7553 114.64 99.9164 107.284 107.959 97.0318C116.001 86.7795 120.487 74.1879 120.739 61.1602C120.991 48.1324 116.995 35.3768 109.355 24.8213C101.715 14.2657 90.847 6.48409 78.3929 2.65258Z" fill="#C4C4C4"/>
<path d="M78.3929 2.65258L81.0394 -5.94953L78.3929 2.65258ZM9.25391 90.792L16.9783 86.1732L16.9783 86.1732L9.25391 90.792ZM38.1581 115.584L41.5469 107.247L38.1581 115.584ZM76.1624 117.987L73.8505 109.289H73.8505L76.1624 117.987ZM120.739 61.1602L129.737 61.3342V61.3342L120.739 61.1602ZM109.355 24.8213L116.646 19.5444V19.5444L109.355 24.8213ZM9.75881 59.0416L0.760339 58.8758L9.75881 59.0416ZM47.6702 10.6928L45.3683 1.99213L47.6702 10.6928ZM47.0244 10.8816C56.4104 8.25867 66.3809 8.37335 75.7465 11.2547L81.0394 -5.94953C68.368 -9.84788 54.8787 -10.0029 42.1799 -6.45416L47.0244 10.8816ZM49.9722 19.3934C53.4018 18.486 57.0123 18 60.7499 18V-4.39223e-08C55.4446 -4.39223e-08 50.2871 0.690761 45.3683 1.99213L49.9722 19.3934ZM60.7499 18C83.9459 18 102.75 36.804 102.75 60H120.75C120.75 26.8629 93.887 -4.39223e-08 60.7499 -4.39223e-08V18ZM102.75 60C102.75 83.196 83.9459 102 60.7499 102V120C93.887 120 120.75 93.1371 120.75 60H102.75ZM60.7499 102C37.554 102 18.75 83.196 18.75 60H0.749987C0.749987 93.1371 27.6129 120 60.7499 120V102ZM18.75 60C18.75 59.7351 18.7524 59.471 18.7573 59.2075L0.760339 58.8758C0.753446 59.2498 0.749987 59.6246 0.749987 60H18.75ZM16.9783 86.1732C11.9507 77.765 9.46496 68.1112 9.77599 58.3728L-8.21484 57.7982C-8.63565 70.9739 -5.27272 84.0348 1.52949 95.4108L16.9783 86.1732ZM41.5469 107.247C31.2864 103.076 22.6623 95.6791 16.9783 86.1732L1.52948 95.4108C9.21961 108.272 20.8874 118.28 34.7693 123.922L41.5469 107.247ZM73.8505 109.289C63.1466 112.134 51.8073 111.417 41.5469 107.247L34.7693 123.922C48.6511 129.564 63.9924 130.534 78.4743 126.685L73.8505 109.289ZM100.877 91.477C94.0414 100.191 84.5545 106.444 73.8505 109.289L78.4743 126.685C92.9561 122.836 105.791 114.377 115.04 102.587L100.877 91.477ZM111.74 60.9861C111.526 72.0597 107.713 82.7626 100.877 91.477L115.04 102.587C124.288 90.7964 129.447 76.3161 129.737 61.3342L111.74 60.9861ZM102.064 30.0981C108.558 39.0703 111.955 49.9126 111.74 60.9861L129.737 61.3342C130.027 46.3523 125.432 31.6833 116.646 19.5444L102.064 30.0981ZM75.7465 11.2547C86.3325 14.5115 95.5705 21.1259 102.064 30.0981L116.646 19.5444C107.86 7.40558 95.3616 -1.5433 81.0394 -5.94953L75.7465 11.2547ZM6.52816 45.1283C-0.690857 44.3534 -7.95397 49.63 -8.21484 57.7982L9.77599 58.3728C9.6738 61.5723 6.88331 63.2698 4.60712 63.0255L6.52816 45.1283ZM18.7573 59.2075C18.8798 52.5605 14.1118 45.9423 6.52816 45.1283L4.60712 63.0255C1.96199 62.7415 0.729361 60.5567 0.760339 58.8758L18.7573 59.2075ZM33.3912 10.8723C35.9899 18.05 43.5574 21.0906 49.9722 19.3934L45.3683 1.99213C46.9852 1.56433 49.4069 2.23332 50.3161 4.7445L33.3912 10.8723ZM42.1799 -6.45416C34.3144 -4.25611 30.9208 4.04911 33.3912 10.8723L50.3161 4.7445C51.097 6.90138 50.1103 10.0193 47.0244 10.8816L42.1799 -6.45416Z" fill="#219D80" mask="url(#path-5-inside-1_1166_25)"/>
<defs>
<clipPath id="clip0_1166_25">
<rect x="27.75" y="34" width="65.9999" height="52.8" rx="10" fill="white"/>
</clipPath>
</defs>
</svg>
