<svg width="121" height="120" viewBox="0 0 121 120" fill="none" xmlns="http://www.w3.org/2000/svg">
<circle cx="60.75" cy="60" r="60" fill="white"/>
<circle cx="60.75" cy="60" r="55.5" stroke="#4D7AD2" stroke-opacity="0.15" stroke-width="9"/>
<g clip-path="url(#clip0_2273_1889)">
<path d="M78.0749 53.8H62.3999V59.575C62.3999 63.669 59.0689 67 54.9749 67C50.8808 67 47.5499 63.669 47.5499 59.575V47.035L40.8571 51.0568C38.8668 52.2428 37.6499 54.3981 37.6499 56.7081V61.5859L29.3999 66.3503C27.8221 67.2578 27.2755 69.279 28.1933 70.8568L36.4433 85.15C37.3508 86.7278 39.3721 87.264 40.9499 86.3565L51.613 80.2H65.6999C69.3402 80.2 72.2999 77.2403 72.2999 73.6H73.9499C75.7752 73.6 77.2499 72.1253 77.2499 70.3V63.7H78.0749C79.4464 63.7 80.5499 62.5965 80.5499 61.225V56.275C80.5499 54.9034 79.4464 53.8 78.0749 53.8ZM93.3064 49.9431L85.0564 35.65C84.1489 34.0722 82.1277 33.5359 80.5499 34.4434L69.8868 40.6H59.3474C58.1099 40.6 56.9033 40.9506 55.8515 41.6003L52.3968 43.7556C51.4274 44.3537 50.8499 45.4159 50.8499 46.5503V59.575C50.8499 61.854 52.6958 63.7 54.9749 63.7C57.254 63.7 59.0999 61.854 59.0999 59.575V50.5H78.0749C81.2614 50.5 83.8499 53.0884 83.8499 56.275V59.214L92.0999 54.4496C93.6777 53.5318 94.2139 51.5209 93.3064 49.9431Z" fill="#4D7AD2"/>
</g>
<mask id="path-4-inside-1_2273_1889" fill="white">
<path fill-rule="evenodd" clip-rule="evenodd" d="M82.4205 4.05014C73.1408 0.455905 63.1356 -0.765324 53.3072 0.463404C50.8425 0.771533 49.2682 3.1617 49.76 5.59638C50.2515 8.02924 52.6206 9.58332 55.0876 9.31081C56.9468 9.10545 58.8361 9.00002 60.75 9.00002C88.9165 9.00002 111.75 31.8335 111.75 60C111.75 88.1665 88.9165 111 60.75 111C40.5173 111 23.0365 99.2182 14.7938 82.1411C13.7152 79.9064 11.1405 78.7233 8.81894 79.5995C6.49712 80.4758 5.30992 83.0772 6.35747 85.327C10.539 94.3075 16.8906 102.136 24.8674 108.088C34.0477 114.938 44.997 119.017 56.4215 119.844C67.8461 120.67 79.2684 118.209 89.339 112.751C99.4095 107.293 107.707 99.0668 113.252 89.0438C118.797 79.0209 121.356 67.6202 120.629 56.1889C119.901 44.7577 115.917 33.7735 109.146 24.5344C102.376 15.2952 93.1017 8.18718 82.4205 4.05014Z"/>
</mask>
<path fill-rule="evenodd" clip-rule="evenodd" d="M82.4205 4.05014C73.1408 0.455905 63.1356 -0.765324 53.3072 0.463404C50.8425 0.771533 49.2682 3.1617 49.76 5.59638C50.2515 8.02924 52.6206 9.58332 55.0876 9.31081C56.9468 9.10545 58.8361 9.00002 60.75 9.00002C88.9165 9.00002 111.75 31.8335 111.75 60C111.75 88.1665 88.9165 111 60.75 111C40.5173 111 23.0365 99.2182 14.7938 82.1411C13.7152 79.9064 11.1405 78.7233 8.81894 79.5995C6.49712 80.4758 5.30992 83.0772 6.35747 85.327C10.539 94.3075 16.8906 102.136 24.8674 108.088C34.0477 114.938 44.997 119.017 56.4215 119.844C67.8461 120.67 79.2684 118.209 89.339 112.751C99.4095 107.293 107.707 99.0668 113.252 89.0438C118.797 79.0209 121.356 67.6202 120.629 56.1889C119.901 44.7577 115.917 33.7735 109.146 24.5344C102.376 15.2952 93.1017 8.18718 82.4205 4.05014Z" fill="white"/>
<path d="M82.4205 4.05014L79.1699 12.4426L82.4205 4.05014ZM24.8674 108.088L30.2498 100.875H30.2498L24.8674 108.088ZM56.4215 119.844L57.0708 110.867H57.0708L56.4215 119.844ZM89.339 112.751L93.6273 120.664L93.6273 120.664L89.339 112.751ZM113.252 89.0438L105.377 84.6873H105.377L113.252 89.0438ZM120.629 56.1889L129.611 55.6173L120.629 56.1889ZM109.146 24.5344L101.887 29.8542V29.8542L109.146 24.5344ZM6.35747 85.327L-1.80143 89.126L6.35747 85.327ZM55.0876 9.31081L54.0994 0.365224L55.0876 9.31081ZM54.4237 9.39389C62.7778 8.34947 71.2822 9.38754 79.1699 12.4426L85.6711 -4.34234C74.9993 -8.47573 63.4935 -9.88012 52.1908 -8.46708L54.4237 9.39389ZM56.0757 18.2564C57.6074 18.0872 59.1668 18 60.75 18V1.81388e-05C58.5053 1.81388e-05 56.2861 0.123682 54.0994 0.365224L56.0757 18.2564ZM60.75 18C83.946 18 102.75 36.8041 102.75 60H120.75C120.75 26.8629 93.8871 1.81388e-05 60.75 1.81388e-05V18ZM102.75 60C102.75 83.196 83.946 102 60.75 102V120C93.8871 120 120.75 93.1371 120.75 60H102.75ZM60.75 102C44.1012 102 29.6974 92.3137 22.8991 78.2289L6.6886 86.0532C16.3755 106.123 36.9335 120 60.75 120V102ZM30.2498 100.875C23.4695 95.8153 18.0707 89.1614 14.5164 81.528L-1.80143 89.126C3.00735 99.4536 10.3116 108.456 19.485 115.301L30.2498 100.875ZM57.0708 110.867C47.3599 110.165 38.053 106.697 30.2498 100.875L19.485 115.301C30.0423 123.179 42.634 127.87 55.7723 128.82L57.0708 110.867ZM85.0506 104.838C76.4907 109.478 66.7817 111.57 57.0708 110.867L55.7722 128.82C68.9105 129.771 82.0462 126.94 93.6273 120.664L85.0506 104.838ZM105.377 84.6873C100.664 93.2068 93.6106 100.199 85.0506 104.838L93.6273 120.664C105.208 114.387 114.751 104.927 121.127 93.4004L105.377 84.6873ZM111.647 56.7606C112.265 66.4772 110.09 76.1677 105.377 84.6873L121.127 93.4004C127.504 81.874 130.447 68.7632 129.611 55.6173L111.647 56.7606ZM101.887 29.8542C107.642 37.7075 111.029 47.044 111.647 56.7606L129.611 55.6173C128.774 42.4713 124.192 29.8395 116.406 19.2145L101.887 29.8542ZM79.1699 12.4426C88.249 15.9591 96.1317 22.0009 101.887 29.8542L116.406 19.2145C108.619 8.5895 97.9545 0.415258 85.6711 -4.34234L79.1699 12.4426ZM22.8991 78.2289C20.0153 72.2543 12.7835 68.4836 5.64102 71.1792L11.9969 88.0198C9.49746 88.9631 7.41514 87.5585 6.6886 86.0532L22.8991 78.2289ZM5.64102 71.1792C-1.14814 73.7415 -5.24905 81.7217 -1.80143 89.126L14.5164 81.528C15.8689 84.4328 14.1424 87.21 11.9969 88.0198L5.64102 71.1792ZM40.9382 7.37846C42.4487 14.856 49.4779 18.9852 56.0757 18.2564L54.0994 0.365224C55.7632 0.181444 58.0542 1.20249 58.5818 3.81431L40.9382 7.37846ZM52.1908 -8.46708C44.0835 -7.45352 39.5009 0.263582 40.9382 7.37846L58.5818 3.81431C59.0354 6.05982 57.6016 8.99659 54.4237 9.39389L52.1908 -8.46708Z" fill="#4D7AD2" mask="url(#path-4-inside-1_2273_1889)"/>
<defs>
<clipPath id="clip0_2273_1889">
<rect width="66" height="52.8" fill="white" transform="translate(27.75 34)"/>
</clipPath>
</defs>
</svg>
