<svg width="121" height="120" viewBox="0 0 121 120" fill="none" xmlns="http://www.w3.org/2000/svg">
<circle cx="60.75" cy="60" r="60" fill="white"/>
<circle cx="60.75" cy="60" r="55.5" stroke="#219D80" stroke-opacity="0.15" stroke-width="9"/>
<g clip-path="url(#clip0_1166_55)">
<path d="M60.75 27.0645C42.5242 27.0645 27.75 41.8386 27.75 60.0645C27.75 78.2903 42.5242 93.0645 60.75 93.0645C78.9758 93.0645 93.75 78.2903 93.75 60.0645C93.75 41.8386 78.9758 27.0645 60.75 27.0645ZM59.2411 59.0305C58.8565 59.6719 58.1632 60.0645 57.4154 60.0645H57.3742C56.81 60.0645 56.2684 60.2893 55.8692 60.6885L55.1161 61.4417C54.7009 61.8568 54.7009 62.5315 55.1161 62.9466L55.8692 63.6998C56.2684 64.099 56.4933 64.6405 56.4933 65.2047V66.4516C56.4933 67.6278 55.5405 68.5806 54.3642 68.5806H53.5512C52.7448 68.5806 52.0077 68.1255 51.6471 67.403L48.6371 61.3845C48.3125 60.7351 47.4462 60.5941 46.9326 61.1077L44.3418 63.6971C43.9426 64.0963 43.401 64.3212 42.8369 64.3212H34.511C34.2861 62.932 34.1371 61.5175 34.1371 60.0645C34.1371 45.3901 46.0756 33.4516 60.75 33.4516C63.6122 33.4516 66.3653 33.9186 68.9508 34.7582L62.2763 39.8852C61.5963 40.339 61.6602 41.3569 62.3907 41.7228L63.8318 42.4427C64.553 42.8033 65.0081 43.5405 65.0081 44.3469V54.7419C65.0081 55.33 64.5317 55.8064 63.9436 55.8064H63.5364C63.1332 55.8064 62.7646 55.5788 62.585 55.2182C62.3774 54.8031 61.7919 54.7805 61.5524 55.1783L59.2411 59.0305ZM82.0403 73.6943C82.0403 74.2584 81.8154 74.8 81.4163 75.1992L80.1428 76.4726C79.7436 76.8718 79.2021 77.0967 78.6379 77.0967H76.6206C76.0564 77.0967 75.5148 76.8718 75.1156 76.4726L73.3845 74.7415C72.9495 74.3066 72.4094 73.9917 71.8166 73.8275C71.2239 73.6634 70.5987 73.6555 70.002 73.8047L67.1717 74.5126C67.0027 74.5552 66.8297 74.5765 66.6554 74.5765H65.2795C64.7153 74.5765 64.1738 74.3516 63.7746 73.9524L62.1898 72.3676C61.9903 72.1677 61.8783 71.8968 61.8784 71.6145V70.2572C61.8784 69.8221 62.1432 69.4309 62.5477 69.2685L67.7825 67.1741C68.0459 67.069 68.2961 66.9319 68.5263 66.7682L71.6813 64.5208C71.8615 64.3924 72.0774 64.3235 72.2987 64.3239H73.9074C74.3372 64.3239 74.7258 64.582 74.8908 64.9799L75.6027 66.6897C75.6431 66.7867 75.7113 66.8694 75.7986 66.9277C75.886 66.9859 75.9887 67.017 76.0937 67.0171H76.5993C76.8362 67.0171 77.0451 66.8601 77.1103 66.6339L77.6692 64.7084C77.7357 64.4809 77.9433 64.3252 78.1801 64.3252H78.9865C79.2806 64.3252 79.5188 64.5634 79.5188 64.8574V66.578C79.5188 66.8601 79.6305 67.1315 79.8301 67.3311L81.4149 68.9159C81.8141 69.3151 82.039 69.8567 82.039 70.4209V73.6943H82.0403Z" fill="#219D80"/>
</g>
<mask id="path-5-inside-1_1166_55" fill="white">
<path fill-rule="evenodd" clip-rule="evenodd" d="M76.2109 2.02633C68.7344 0.0323831 60.9569 -0.492968 53.3067 0.463413C50.842 0.771533 49.2677 3.16169 49.7595 5.59637C50.251 8.02922 52.6201 9.5833 55.0871 9.3108C56.9463 9.10543 58.8356 9 60.7495 9C88.9161 9 111.75 31.8335 111.75 60C111.75 88.1665 88.9161 111 60.7495 111C56.3819 111 52.1425 110.451 48.0965 109.418C45.6922 108.804 43.1298 110.012 42.3052 112.353C41.4806 114.693 42.7064 117.277 45.1019 117.924C52.5463 119.935 60.3229 120.496 68.0053 119.56C77.1774 118.442 85.9675 115.222 93.6903 110.149C101.413 105.076 107.86 98.2881 112.528 90.3143C117.197 82.3404 119.96 73.3962 120.604 64.1787C121.247 54.9613 119.753 45.7197 116.238 37.1746C112.723 28.6294 107.282 21.0116 100.339 14.9148C93.396 8.81814 85.1387 4.40735 76.2109 2.02633Z"/>
</mask>
<path fill-rule="evenodd" clip-rule="evenodd" d="M76.2109 2.02633C68.7344 0.0323831 60.9569 -0.492968 53.3067 0.463413C50.842 0.771533 49.2677 3.16169 49.7595 5.59637C50.251 8.02922 52.6201 9.5833 55.0871 9.3108C56.9463 9.10543 58.8356 9 60.7495 9C88.9161 9 111.75 31.8335 111.75 60C111.75 88.1665 88.9161 111 60.7495 111C56.3819 111 52.1425 110.451 48.0965 109.418C45.6922 108.804 43.1298 110.012 42.3052 112.353C41.4806 114.693 42.7064 117.277 45.1019 117.924C52.5463 119.935 60.3229 120.496 68.0053 119.56C77.1774 118.442 85.9675 115.222 93.6903 110.149C101.413 105.076 107.86 98.2881 112.528 90.3143C117.197 82.3404 119.96 73.3962 120.604 64.1787C121.247 54.9613 119.753 45.7197 116.238 37.1746C112.723 28.6294 107.282 21.0116 100.339 14.9148C93.396 8.81814 85.1387 4.40735 76.2109 2.02633Z" fill="#C4C4C4"/>
<path d="M76.2109 2.02633L73.8917 10.7224L76.2109 2.02633ZM68.0053 119.56L66.917 110.626L68.0053 119.56ZM112.528 90.3143L104.762 85.7671L112.528 90.3143ZM120.604 64.1787L129.582 64.8055L129.582 64.8055L120.604 64.1787ZM116.238 37.1746L107.915 40.5984V40.5984L116.238 37.1746ZM100.339 14.9148L106.277 8.15207V8.15207L100.339 14.9148ZM48.0965 109.418L50.3226 100.698L48.0965 109.418ZM45.1019 117.924L42.7548 126.612H42.7548L45.1019 117.924ZM55.0871 9.3108L54.099 0.365207L55.0871 9.3108ZM54.4231 9.3939C60.9258 8.58097 67.5367 9.02753 73.8917 10.7224L78.5301 -6.66972C69.9321 -8.96276 60.988 -9.56691 52.1903 -8.46707L54.4231 9.3939ZM56.0752 18.2564C57.6069 18.0872 59.1664 18 60.7495 18V9.53721e-07C58.5048 9.53721e-07 56.2856 0.123664 54.099 0.365207L56.0752 18.2564ZM60.7495 18C83.9455 18 102.75 36.804 102.75 60H120.75C120.75 26.8629 93.8866 9.53721e-07 60.7495 9.53721e-07V18ZM102.75 60C102.75 83.196 83.9455 102 60.7495 102V120C93.8866 120 120.75 93.1371 120.75 60H102.75ZM60.7495 102C57.1389 102 53.6471 101.546 50.3226 100.698L45.8705 118.138C50.6378 119.355 55.6249 120 60.7495 120V102ZM66.917 110.626C60.3869 111.421 53.7768 110.945 47.4491 109.235L42.7548 126.612C51.3158 128.925 60.2589 129.57 69.0937 128.494L66.917 110.626ZM88.7492 102.627C82.1848 106.938 74.7132 109.676 66.917 110.626L69.0937 128.494C79.6416 127.209 89.7502 123.505 98.6314 117.671L88.7492 102.627ZM104.762 85.7671C100.793 92.5449 95.3136 98.3146 88.7492 102.627L98.6314 117.671C107.513 111.837 114.927 104.031 120.295 94.8614L104.762 85.7671ZM111.626 63.5519C111.079 71.3867 108.73 78.9894 104.762 85.7671L120.295 94.8614C125.664 85.6915 128.842 75.4056 129.582 64.8055L111.626 63.5519ZM107.915 40.5984C110.903 47.8618 112.173 55.7171 111.626 63.5519L129.582 64.8055C130.322 54.2055 128.604 43.5777 124.562 33.7508L107.915 40.5984ZM94.4006 21.6776C100.302 26.8598 104.927 33.335 107.915 40.5984L124.562 33.7508C120.519 23.9238 114.262 15.1633 106.277 8.15207L94.4006 21.6776ZM73.8917 10.7224C81.4803 12.7462 88.499 16.4954 94.4006 21.6776L106.277 8.15207C98.293 1.14086 88.7971 -3.93155 78.5301 -6.66972L73.8917 10.7224ZM50.3226 100.698C43.8934 99.0566 36.3531 102.163 33.8166 109.362L50.7938 115.344C49.9065 117.862 47.491 118.552 45.8705 118.138L50.3226 100.698ZM33.8166 109.362C31.4054 116.206 34.87 124.482 42.7548 126.612L47.4491 109.235C50.5428 110.071 51.5559 113.18 50.7938 115.344L33.8166 109.362ZM40.9377 7.37844C42.4483 14.856 49.4775 18.9852 56.0752 18.2564L54.099 0.365207C55.7627 0.181426 58.0537 1.20247 58.5813 3.81429L40.9377 7.37844ZM52.1903 -8.46707C44.0828 -7.45352 39.5005 0.263735 40.9377 7.37844L58.5813 3.81429C59.0349 6.05964 57.6013 8.99659 54.4231 9.3939L52.1903 -8.46707Z" fill="#219D80" mask="url(#path-5-inside-1_1166_55)"/>
<defs>
<clipPath id="clip0_1166_55">
<rect x="27.75" y="26" width="66" height="68.129" rx="10" fill="white"/>
</clipPath>
</defs>
</svg>
