<svg width="23" height="24" viewBox="0 0 23 24" fill="none" xmlns="http://www.w3.org/2000/svg">
<path d="M10.9562 0.656334C10.9846 0.656334 11.0114 0.664122 11.0382 0.664122C11.1217 0.661526 11.2045 0.655469 11.2888 0.656334H10.9562ZM11.0855 14.7384C11.1004 14.7384 11.1138 14.7358 11.1288 14.7358C11.1398 14.7358 11.1501 14.7384 11.1611 14.7384H11.0855ZM15.7742 9.55693C15.7624 9.55433 15.7537 9.54049 15.7411 9.53703C14.9993 12.4834 13.079 14.6882 11.128 14.735C9.35123 14.645 7.16925 12.48 6.44245 9.54828C6.10822 9.57078 5.77398 9.13812 5.68018 8.53586C5.58322 7.90765 5.78659 7.34692 6.13107 7.28203C6.15315 7.2777 6.17601 7.29327 6.19729 7.29414C6.2974 2.4458 8.39582 0.735943 11.0382 0.662391C13.7633 0.677101 16.203 2.75558 16.0485 7.29587C16.0745 7.29587 16.099 7.2777 16.1242 7.28289C16.4702 7.34779 16.672 7.90851 16.5751 8.53673C16.4805 9.16321 16.121 9.6201 15.7742 9.55693ZM7.45697 15.5769L9.93298 20.8951L10.324 17.4365L9.71305 16.8861H11.1935H12.5469L11.9352 17.4365L12.327 20.8951L14.7999 15.5769C19.1008 16.2129 22.1885 18.236 22.1885 23.1544H0.0730915C0.071516 18.2351 3.15845 16.2138 7.45697 15.5769Z" fill="#999999"/>
</svg>
