<svg width="29" height="31" viewBox="0 0 29 31" fill="none" xmlns="http://www.w3.org/2000/svg">
<path d="M14.0528 0.193047C14.2194 0.0690266 14.4216 0.00135417 14.6298 -3.90829e-05C14.8379 -0.00143233 15.0411 0.0635269 15.2094 0.185306C17.7405 2.0174 20.8494 3.10762 23.3702 3.73853C24.6228 4.05205 25.7132 4.24816 26.4881 4.36557C26.8664 4.42262 27.246 4.47123 27.6265 4.51137L27.6849 4.51782H27.7005C27.9436 4.53851 28.17 4.64918 28.3349 4.8279C28.4998 5.00663 28.5912 5.24039 28.5909 5.48289V14.1918C28.5909 20.4222 24.4203 27.8873 14.9355 30.918C14.7413 30.9802 14.5325 30.9802 14.3384 30.918C4.87301 27.8925 0.358398 20.4403 0.358398 13.8692V5.48289C0.358398 4.97971 0.747813 4.5591 1.25405 4.51782H1.27093L1.33323 4.51137C1.38905 4.50621 1.47342 4.49847 1.58505 4.48556C1.80572 4.46105 2.13283 4.42234 2.54171 4.36428C3.35948 4.24687 4.50566 4.04947 5.8076 3.73595C8.43355 3.10375 11.6112 2.01353 14.0528 0.193047ZM-nan -nanL22.1292 10.694C22.3148 10.5154 22.4214 10.2708 22.4255 10.0141C22.4296 9.7574 22.331 9.50956 22.1513 9.32513C21.9716 9.14069 21.7255 9.03476 21.4673 9.03065C21.209 9.02654 20.9596 9.12457 20.7741 9.30319L14.182 15.6438C12.5986 17.1668 10.107 17.206 8.47638 15.7336C8.28402 15.5697 8.03493 15.4868 7.78204 15.5025C7.52915 15.5182 7.29239 15.6313 7.12205 15.8177C6.9517 16.0041 6.86121 16.2493 6.86978 16.501C6.87835 16.7527 6.98532 16.9911 7.16795 17.1657L10.7376 20.3912C10.9207 20.5566 11.1602 20.6465 11.4076 20.6427C11.655 20.6389 11.8916 20.5416 12.0694 20.3706L22.1292 10.694L-nan -nanZ" fill="#219D80"/>
</svg>
