<svg width="29" height="31" viewBox="0 0 29 31" fill="none" xmlns="http://www.w3.org/2000/svg">
<path d="M14.0528 0.193108C14.2194 0.0690876 14.4216 0.0014152 14.6298 2.19523e-05C14.8379 -0.0013713 15.0411 0.0635879 15.2094 0.185367C17.7405 2.01746 20.8494 3.10768 23.3702 3.73859C24.6228 4.05211 25.7132 4.24823 26.4881 4.36563C26.8664 4.42268 27.246 4.47129 27.6265 4.51143L27.6849 4.51788H27.7005C27.9436 4.53857 28.17 4.64924 28.3349 4.82796C28.4998 5.00669 28.5912 5.24045 28.5909 5.48295V14.1918C28.5909 20.4223 24.4203 27.8874 14.9355 30.9181C14.7413 30.9802 14.5325 30.9802 14.3384 30.9181C4.87301 27.8925 0.358398 20.4403 0.358398 13.8693V5.48295C0.358398 4.97977 0.747813 4.55917 1.25405 4.51788H1.27093L1.33323 4.51143C1.38905 4.50627 1.47342 4.49853 1.58505 4.48562C1.80572 4.46111 2.13283 4.4224 2.54171 4.36434C3.35948 4.24694 4.50566 4.04953 5.8076 3.73601C8.43355 3.10381 11.6112 2.01359 14.0528 0.193108ZM-nan -nanL22.1292 10.6941C22.3148 10.5155 22.4214 10.2709 22.4255 10.0142C22.4296 9.75746 22.331 9.50962 22.1513 9.32519C21.9716 9.14075 21.7255 9.03482 21.4673 9.03071C21.209 9.0266 20.9596 9.12463 20.7741 9.30326L14.182 15.6439C12.5986 17.1669 10.107 17.2061 8.47638 15.7336C8.28402 15.5697 8.03493 15.4868 7.78204 15.5025C7.52915 15.5182 7.29239 15.6313 7.12205 15.8178C6.9517 16.0042 6.86121 16.2493 6.86978 16.501C6.87835 16.7527 6.98532 16.9912 7.16795 17.1658L10.7376 20.3913C10.9207 20.5567 11.1602 20.6466 11.4076 20.6428C11.655 20.6389 11.8916 20.5416 12.0694 20.3706L22.1292 10.6941L-nan -nanZ" fill="#4D7AD2"/>
</svg>
