<svg width="554" height="563" viewBox="0 0 554 563" fill="none" xmlns="http://www.w3.org/2000/svg">
<path d="M218.434 35.1063C203.859 -2.81503 131.753 -21.5413 143.652 53.9634C145.603 66.3437 145.799 87.6613 143.652 113.609C141.685 137.379 103.177 150.385 91.3569 181.099C72.8188 229.266 142.131 262.839 131.101 288.16C116.654 321.324 72.4196 335.713 47.952 353.857C24.9183 370.937 10.2466 398.344 4.61326 426.52C-5.26983 475.953 12.6655 527.757 62.0717 530.334C86.8041 531.624 119.423 520.579 160.386 490.724C178.701 477.377 194.851 466.376 209.204 457.482C246.146 434.588 236.214 488.74 280.142 490.724C305.172 491.855 331.314 445.105 351.104 470.042C365.176 487.773 381.324 509.288 404.385 531.406C444.883 570.25 495.518 575.969 502.68 520.531C506.061 494.361 499.754 454.563 478.121 398.188C464.277 362.111 498.712 363.383 502.68 317.152C506.647 270.921 474.203 249.601 497.69 230.466L498.16 230.083C516.062 215.501 535.154 199.948 545.581 170.075C554.563 144.342 553.705 118.856 545.581 99.2723C536.887 78.3135 519.871 64.1154 497.69 63.6117C475.433 63.1064 447.975 76.3881 418.504 110.461C399.074 132.926 385.915 80.6536 351.104 85.9971C316.293 91.3406 311.455 141.777 290.601 127.148C254.376 101.737 235.504 79.5189 218.434 35.1063Z" stroke="white" stroke-width="3"/>
<path d="M288.748 241.959C286.53 236.137 276.192 237.665 275.669 243.974C275.074 251.158 278.705 260.519 278.285 267.72C277.475 281.623 272.563 285.58 262.783 292.908C259.278 295.53 257.045 299.737 256.188 304.063C254.684 311.652 257.413 319.605 264.932 320C268.696 320.198 273.66 318.503 279.894 313.919C282.681 311.87 285.139 310.182 287.323 308.816C296.832 302.396 305.682 307.427 308.919 310.744C311.06 313.466 313.518 316.769 317.027 320.165C323.19 326.128 332.524 325.347 331.986 318.495C331.227 308.816 314.702 272.687 331.986 266.387C340.015 263.46 339.752 256.831 338.515 253.825C337.192 250.607 334.603 248.428 331.227 248.351C327.84 248.273 322.229 253.825 319.176 255.543C307.907 261.884 297.852 265.161 288.748 241.959Z" stroke="white" stroke-width="3"/>
<path d="M155.708 70.483C145.148 1.74738 211.041 18.8817 224.403 53.6459C240.763 96.1469 258.849 116.066 292.834 138.613C311.947 151.845 316.546 105.793 348.421 100.788C380.295 95.7824 392.473 143.217 410.306 122.782C437.428 91.7886 462.646 79.9013 483.018 80.6514C503.257 81.2452 518.773 94.3803 526.612 113.665C533.933 131.699 534.537 155.103 525.999 178.647C514.857 206.632 498.766 224.052 482.424 238.294C461.079 256.012 490.399 275.582 486.513 317.671C482.626 359.761 450.942 358.487 463.258 391.041C482.622 442.026 488.137 477.937 484.866 501.501C478.203 551.79 431.857 546.398 394.662 510.979C373.333 490.776 358.223 471.234 344.987 455.391C326.782 432.827 302.772 475.513 279.745 474.669C239.492 473.07 248.274 423.943 214.435 444.86C201.149 453.04 186.256 463.082 169.421 475.218C131.465 502.344 101.538 511.676 79.1713 509.817C34.2569 507.277 18.0082 459.953 27.1009 414.805C32.327 388.995 45.8069 363.906 66.924 348.248C90.076 331.079 130.771 317.631 143.989 286.203C154.045 262.841 90.9058 231.922 107.702 187.725C118.386 159.408 153.354 147.202 155.171 125.251C157.149 101.359 157.217 81.7867 155.708 70.483Z" stroke="white" stroke-width="3"/>
<path d="M168.305 87.6983C159.099 25.9573 218.683 41.4434 230.813 72.9359C246.438 113.382 263.712 130.937 295.408 150.547C312.753 162.339 317.106 120.823 345.997 116.173C374.889 111.522 386.067 153.964 402.277 135.625C427.01 107.813 449.953 97.3589 468.409 98.3507C486.676 99.0325 500.67 111.061 507.643 128.609C514.149 145.034 514.498 166.277 506.418 187.555C494.667 213.298 481.846 232.511 467.222 246.253C448.049 262.495 474.202 280.25 470.403 318.06C466.604 355.87 437.717 354.598 448.487 383.524C465.554 428.952 470.269 460.858 467.112 481.74C460.957 526.715 418.967 521.669 385.13 489.791C365.565 471.571 351.515 454.064 339.134 440.161C322.54 420.042 300.698 458.525 279.706 457.97C243.188 456.762 250.808 412.821 220.121 431.692C207.921 439.131 194.307 448.182 178.976 459.064C144.083 483.374 116.891 490.963 96.9231 488.543C56.5661 486.049 42.0279 443.36 50.317 402.645C55.1282 379.288 67.3966 356.599 86.5664 342.415C108.369 326.278 145.465 313.815 157.436 284.23C166.501 262.903 109.628 234.74 124.658 194.66C134.191 168.833 165.568 157.467 167.232 137.408C169.037 115.65 169.37 97.8884 168.305 87.6983Z" stroke="white" stroke-width="3"/>
<path d="M180.358 104.219C172.492 49.247 225.858 63.1411 236.775 91.4763C251.691 130.01 268.179 145.265 297.635 162.012C313.238 172.407 317.352 135.276 343.305 130.964C369.258 126.651 379.455 164.256 394.067 147.946C416.45 123.214 437.152 114.154 453.721 115.391C470.043 116.163 482.537 127.128 488.654 143.002C494.356 157.877 494.451 177.038 486.815 196.127C474.436 219.721 464.866 240.788 451.939 254.079C434.909 268.905 457.935 284.909 454.217 318.577C450.499 352.245 424.364 350.971 433.605 376.374C448.4 416.412 452.322 444.432 449.275 462.708C443.618 502.534 405.92 497.815 375.389 469.361C357.557 453.058 344.545 437.522 332.999 425.508C317.992 407.761 298.283 442.18 279.295 441.912C246.455 441.09 252.923 402.174 225.341 419.068C214.209 425.792 201.853 433.885 188.002 443.555C156.118 465.136 131.62 471.012 114.019 468.024C78.1577 465.568 65.3076 427.357 72.806 390.927C77.2096 369.939 88.2855 349.567 105.538 336.805C126.025 321.644 159.579 310.121 170.321 282.272C178.41 262.905 127.716 237.396 141.003 201.286C149.398 177.856 177.233 167.29 178.746 149.051C180.381 129.348 180.98 113.332 180.358 104.219Z" stroke="white" stroke-width="3"/>
<path d="M192.949 120.738C186.437 72.538 233.491 84.8398 243.175 110.017C257.355 146.641 273.029 159.596 300.193 173.478C314.027 182.476 317.895 149.73 340.863 145.755C363.832 141.781 373.028 174.546 386.016 160.267C406.009 138.616 424.434 130.951 439.087 132.433C453.436 133.295 464.407 143.197 469.658 157.398C474.546 170.723 474.386 187.8 467.207 204.7C454.223 226.145 447.921 249.075 436.712 261.914C421.856 275.324 441.714 289.577 438.083 319.102C434.453 348.627 411.117 347.351 418.812 369.23C431.31 403.875 434.431 428.006 431.5 443.675C426.351 478.35 393.011 473.959 365.84 448.93C349.773 434.543 337.821 420.98 327.132 410.856C313.737 395.482 296.197 425.836 279.246 425.855C250.142 425.419 255.448 391.53 231.02 406.447C220.975 412.457 209.898 419.591 197.552 428.048C168.734 446.9 146.972 451.061 131.771 447.503C100.469 445.084 89.3296 411.354 96.0238 379.209C100.012 360.589 109.876 342.536 125.18 331.196C144.316 317.009 174.268 306.427 183.762 280.313C190.861 262.905 146.436 240.05 157.956 207.911C165.198 186.878 189.441 177.111 190.802 160.692C192.264 143.045 193.127 128.775 192.949 120.738Z" stroke="white" stroke-width="3"/>
<path d="M205.535 138.035C200.377 96.7142 241.117 107.396 249.568 129.359C263.01 163.991 277.867 174.617 302.736 185.602C314.8 193.182 318.422 164.895 338.405 161.268C358.388 157.641 366.584 185.494 377.947 173.276C395.549 154.754 411.696 148.502 424.432 150.225C436.808 151.176 446.256 159.993 450.64 172.487C454.714 184.233 454.3 199.189 447.579 213.862C433.994 233.11 430.956 257.848 421.467 270.207C408.783 282.17 425.474 294.641 421.932 319.957C418.389 345.274 397.854 343.998 404.003 362.304C414.204 391.479 416.526 411.668 413.71 424.695C409.071 454.141 380.09 450.087 356.281 428.54C341.978 416.102 331.089 404.542 321.258 396.33C309.475 383.363 294.105 409.584 279.192 409.891C253.825 409.842 257.969 381.056 236.695 393.962C227.738 399.243 217.942 405.403 207.101 412.628C181.351 428.709 162.327 431.145 149.525 427.027C122.781 424.65 113.353 395.476 119.243 367.689C122.816 351.479 131.467 335.784 144.822 325.892C162.604 312.712 188.954 303.094 197.199 278.774C203.308 263.363 165.152 243.215 174.905 215.119C180.995 196.529 201.646 187.584 202.854 173.021C204.143 157.469 205.27 144.977 205.535 138.035Z" stroke="white" stroke-width="3"/>
<path d="M217.576 154.555C213.76 120.009 248.272 129.098 255.507 147.902C268.24 180.628 282.311 188.951 304.937 197.068C315.256 203.25 318.638 179.351 335.678 176.062C352.717 172.772 359.93 195.783 369.692 185.597C384.94 170.157 398.842 165.301 409.688 167.27C420.115 168.312 428.06 176.066 431.587 186.886C434.855 197.081 434.186 209.953 427.91 222.436C413.694 239.535 413.916 266.143 406.126 278.054C395.589 288.6 409.147 299.319 405.686 320.49C402.224 341.662 384.446 340.383 389.062 355.163C396.987 378.942 398.515 395.239 395.809 405.658C391.668 429.95 366.987 426.222 346.489 408.103C333.923 397.582 324.073 387.995 315.078 381.674C304.884 371.082 291.652 393.237 278.745 393.831C257.063 394.169 260.053 370.413 241.89 381.341C234.002 385.908 225.466 391.108 216.108 397.12C193.372 410.47 177.045 411.189 166.616 406.499C144.376 404.158 136.639 379.467 141.737 355.968C144.902 342.127 152.358 328.751 163.792 320.281C180.258 308.075 203.059 299.397 210.073 276.811C215.205 263.359 183.238 245.866 191.245 221.742C196.195 205.549 213.297 197.403 214.355 184.661C215.474 171.165 216.866 160.42 217.576 154.555Z" stroke="white" stroke-width="3"/>
<path d="M230.146 171.074C227.683 143.307 255.875 150.803 261.875 166.446C273.864 197.273 287.111 203.291 307.434 208.535C315.98 213.318 319.115 193.809 333.165 190.857C347.215 187.905 353.426 206.07 361.561 197.916C374.414 185.561 386.036 182.104 394.963 184.32C403.414 185.453 409.835 192.144 412.496 201.289C414.949 209.934 414.027 220.721 408.213 231.013C393.406 245.963 396.883 274.455 390.813 285.92C382.451 295.05 392.841 304.017 389.469 321.04C386.098 338.063 371.125 336.782 374.196 348.031C379.825 366.408 380.554 378.809 377.965 386.616C374.335 405.749 354.018 402.348 336.886 387.658C326.089 379.057 317.305 371.445 309.171 367.018C300.593 358.803 289.533 376.888 278.668 377.771C260.727 378.497 262.556 359.775 247.552 368.724C240.754 372.576 233.5 376.817 225.65 381.613C205.988 392.231 192.403 391.227 184.373 385.963C166.696 383.658 160.671 363.452 164.963 344.244C167.711 332.773 173.953 321.718 183.435 314.672C198.54 303.437 217.733 295.699 223.497 274.842C227.637 263.35 201.945 248.512 208.184 228.363C211.982 214.568 225.49 207.22 226.394 196.297C227.34 184.858 228.995 175.86 230.146 171.074Z" stroke="white" stroke-width="3"/>
<path d="M242.365 187.591C241.244 166.614 263.268 172.514 268.066 184.994C279.38 213.932 291.88 217.639 310.016 220.003C316.836 223.384 319.741 208.271 330.878 205.656C342.016 203.042 347.259 216.352 353.812 210.234C364.341 200.968 373.744 198.912 380.801 201.378C387.323 202.603 392.253 208.231 394.061 215.7C395.713 222.793 394.532 231.494 389.145 239.593C373.656 252.395 380.42 282.794 376.038 293.817C369.806 301.53 377.081 308.744 373.78 321.613C370.479 334.482 358.228 333.197 359.769 340.91C363.129 353.876 363.062 362.374 360.574 367.564C357.434 381.531 341.372 378.456 327.511 367.2C318.424 360.519 310.656 354.885 303.336 352.356C296.326 346.522 287.378 360.534 278.495 361.707C264.198 362.822 264.874 349.143 252.947 356.11L252.616 356.29C246.971 359.372 241.067 362.595 234.804 366.107C218.108 373.988 207.189 371.256 201.518 365.412C188.309 363.142 183.964 347.426 187.474 332.513C189.821 323.415 194.883 314.682 202.465 309.06C216.296 298.795 231.986 291.995 236.531 272.863C239.703 263.331 220.148 251.15 224.651 234.978C227.317 223.582 237.302 217.031 238.058 207.929C238.836 198.548 240.763 191.298 242.365 187.591Z" stroke="white" stroke-width="3"/>
<path d="M254.905 204.909C255.136 190.814 270.82 195.092 274.379 204.354C284.934 231.272 296.594 232.653 312.404 232.127C317.446 234.091 320.099 223.44 328.237 221.175C336.376 218.909 340.61 227.308 345.53 223.252C353.653 217.116 360.767 216.47 365.898 219.174C370.438 220.486 373.84 225.025 374.781 230.785C375.618 236.296 374.186 242.872 369.267 248.741C353.21 259.338 363.215 291.503 360.555 302.035C356.503 308.298 360.605 313.725 357.399 322.385C354.193 331.044 344.759 329.761 344.755 333.903C345.819 341.402 344.955 345.961 342.588 348.512C339.961 357.25 328.278 354.515 317.798 346.742C310.489 342.012 303.796 338.38 297.346 337.761C291.959 334.333 285.193 344.209 278.359 345.667C267.818 347.167 267.334 338.589 258.576 343.544C253.927 345.951 249.204 348.256 244.333 350.604C230.729 355.714 222.562 351.267 219.294 344.87C210.658 342.646 208.028 331.489 210.728 320.937C212.656 314.252 216.499 307.88 222.123 303.708C234.575 294.458 246.641 288.627 249.932 271.306C252.11 263.776 238.845 254.307 241.578 242.184C243.089 233.237 249.473 227.512 250.074 220.272C250.679 212.99 252.865 207.521 254.905 204.909Z" stroke="white" stroke-width="3"/>
<path d="M267.63 221.449C269.206 214.185 278.601 216.856 280.931 222.928C290.744 247.887 301.582 246.951 315.098 243.544C318.376 244.1 320.781 237.876 325.945 235.954C331.109 234.031 334.346 237.55 337.647 235.542C343.386 232.514 348.229 233.272 351.45 236.219C354.025 237.62 355.91 241.083 355.989 245.151C356.015 249.095 354.332 253.566 349.873 257.225C333.231 265.645 346.473 299.637 345.525 309.7C343.636 314.529 344.586 318.187 341.47 322.667C338.354 327.146 331.712 325.862 330.172 326.454C328.951 328.518 327.293 329.158 325.043 329.083C322.924 332.627 315.585 330.225 308.454 325.91C302.907 323.114 297.276 321.472 291.683 322.754C287.904 321.718 283.3 327.491 278.498 329.236C271.681 331.122 270.042 327.614 264.428 330.572C260.864 332.257 257.418 333.594 254.047 334.719C243.505 337.076 238.066 330.91 237.186 323.95C233.089 321.765 232.162 315.132 234.061 308.906C235.574 304.613 238.208 300.582 241.89 297.847C252.986 289.59 261.46 284.714 263.507 269.163C264.699 263.614 257.678 256.829 258.652 248.718C259.016 242.194 261.824 237.282 262.273 231.883C262.705 226.679 265.151 222.974 267.63 221.449Z" stroke="white" stroke-width="3"/>
</svg>
