<svg width="23" height="23" viewBox="0 0 23 23" fill="none" xmlns="http://www.w3.org/2000/svg">
<path d="M19.5928 0.694094C19.0457 0.700687 18.4985 0.911624 18.0898 1.3335L10.2192 9.33594L9.0459 14.2666L13.9766 13.0933L14.148 12.9351L21.9856 5.22266C22.8228 4.40528 22.8359 3.02759 21.9988 2.19702L21.1155 1.30713C20.7002 0.891848 20.1465 0.687502 19.5928 0.694094ZM19.606 2.36841C19.718 2.36841 19.8301 2.41455 19.9224 2.50684L20.8057 3.39014C20.9902 3.56812 20.9902 3.83838 20.8057 4.02295L13.1328 11.564L11.3135 11.999L11.7485 10.1797L19.2961 2.50684C19.3818 2.41455 19.4939 2.36841 19.606 2.36841ZM4.0625 2.375C2.19702 2.375 0.6875 3.88452 0.6875 5.75V19.25C0.6875 21.1155 2.19702 22.625 4.0625 22.625H17.5625C19.428 22.625 20.9375 21.1155 20.9375 19.25V8.62403L19.25 10.2852V19.25C19.25 20.1794 18.4919 20.9375 17.5625 20.9375H4.0625C3.13306 20.9375 2.375 20.1794 2.375 19.25V5.75C2.375 4.82056 3.13306 4.0625 4.0625 4.0625H13.0405L14.7017 2.375H4.0625Z" fill="#5B5B5B"/>
</svg>
