<svg width="22" height="22" viewBox="0 0 22 22" fill="none" xmlns="http://www.w3.org/2000/svg">
<path d="M14.8347 0.0601468C14.5169 0.0512205 14.1945 0.0785337 13.8758 0.144452C13.0258 0.320233 12.3257 0.749844 11.9007 1.33578L11.0008 2.60531C10.8008 2.87875 10.9257 3.25015 11.2757 3.4064L15.6009 5.35952C15.7259 5.41812 15.8509 5.43734 15.9759 5.43734C16.0508 5.43734 16.1006 5.43742 16.1756 5.41789C16.3756 5.37883 16.5258 5.28109 16.6258 5.14437L17.5506 3.87484C17.9756 3.28891 18.1008 2.60562 17.8758 1.94156C17.6508 1.27749 17.1008 0.730542 16.3508 0.39851C15.8821 0.190991 15.3645 0.0750242 14.8347 0.0601468ZM10.0252 4.44667C9.78298 4.46116 9.55056 4.5634 9.42556 4.73429L1.87575 14.9687C1.02575 16.1016 0.550949 17.3712 0.450949 18.6602L0.250753 21.1798C0.225753 21.3947 0.375753 21.6093 0.625753 21.7265C0.750753 21.7851 0.875753 21.8047 1.00075 21.8047C1.15075 21.8047 1.30056 21.7656 1.42556 21.707L4.12575 20.3204C5.50075 19.5977 6.67575 18.6406 7.50075 17.5078L15.0759 7.27336C15.2759 6.99992 15.1506 6.6289 14.8006 6.47265C14.4506 6.3164 13.9757 6.41398 13.7757 6.68742L6.20095 16.9219C5.47595 17.8789 4.47566 18.7188 3.27566 19.3438L1.82595 20.0858L1.92556 18.7384C2.00056 17.6251 2.42566 16.5312 3.15066 15.5547L10.7259 5.32023C10.9259 5.04679 10.8009 4.67578 10.4509 4.51953C10.3197 4.46093 10.1705 4.43797 10.0252 4.44667ZM7.25075 20.6328C6.82575 20.6328 6.50075 20.8867 6.50075 21.2187C6.50075 21.5508 6.82575 21.8047 7.25075 21.8047H17.2508C17.6758 21.8047 18.0008 21.5508 18.0008 21.2187C18.0008 20.8867 17.6758 20.6328 17.2508 20.6328H7.25075ZM21.0008 20.6328C20.8018 20.6328 20.6111 20.6945 20.4704 20.8044C20.3298 20.9143 20.2508 21.0633 20.2508 21.2187C20.2508 21.3741 20.3298 21.5232 20.4704 21.6331C20.6111 21.743 20.8018 21.8047 21.0008 21.8047C21.1997 21.8047 21.3904 21.743 21.5311 21.6331C21.6717 21.5232 21.7508 21.3741 21.7508 21.2187C21.7508 21.0633 21.6717 20.9143 21.5311 20.8044C21.3904 20.6945 21.1997 20.6328 21.0008 20.6328Z" fill="#5B5B5B"/>
</svg>
