<svg width="67" height="67" viewBox="0 0 67 67" fill="none" xmlns="http://www.w3.org/2000/svg">
<path d="M17.3268 66.576H24.7727C24.7727 65.1953 25.892 64.076 27.2727 64.076H39.7185C41.0993 64.076 42.2185 65.1953 42.2185 66.576H49.6644C49.6644 65.1953 50.7837 64.076 52.1644 64.076H58.3873C58.77 64.076 59.1487 64.0382 59.5183 63.9646C59.9512 63.8785 60.3801 63.9098 60.7723 64.0364C60.96 63.6696 61.2412 63.3442 61.6082 63.099C61.9216 62.8896 62.216 62.6487 62.4866 62.3781C62.7572 62.1075 62.9982 61.813 63.2076 61.4997C63.4528 61.1328 63.7782 60.8516 64.145 60.6638C64.0184 60.2717 63.9871 59.8428 64.0732 59.41C64.1468 59.0404 64.1846 58.6618 64.1846 58.2791V52.0565C64.1846 50.6757 65.3039 49.5565 66.6846 49.5565V44.1854H60.4616C59.0809 44.1854 57.9616 43.0661 57.9616 41.6854H50.5158C50.5158 43.0661 49.3965 44.1854 48.0158 44.1854H47.8286L51.8578 48.2144C52.5728 48.9294 52.7867 50.0047 52.3998 50.9389C52.0128 51.8731 51.1012 52.4822 50.0901 52.4822H43.8672C42.4864 52.4822 41.3672 51.3629 41.3672 49.9822H33.9213C33.9213 51.3629 32.802 52.4822 31.4213 52.4822H18.9754C17.5947 52.4822 16.4754 51.3629 16.4754 49.9822H9.02957C9.02957 51.3629 7.91028 52.4822 6.52957 52.4822H2.80664V58.2791C2.80664 58.6618 2.84446 59.0404 2.91799 59.41C3.00409 59.8428 2.97284 60.2717 2.84625 60.6638C3.21304 60.8516 3.53844 61.1328 3.78362 61.4997C3.993 61.813 4.23396 62.1075 4.50457 62.3781C4.77519 62.6487 5.06965 62.8896 5.38303 63.099C5.74999 63.3442 6.03121 63.6696 6.21896 64.0364C6.61109 63.9098 7.04006 63.8785 7.47291 63.9646C7.84256 64.0382 8.22117 64.076 8.60388 64.076H14.8268C16.2075 64.076 17.3268 65.1953 17.3268 66.576ZM6.83084 43.4583C5.85455 42.482 4.27164 42.482 3.29531 43.4582L0.306641 46.4468L0.306641 42.1111C1.68735 42.1111 2.80664 40.9919 2.80664 39.6111V27.1658C2.80664 25.7851 1.68735 24.6658 0.306641 24.6658V17.2205C1.68735 17.2205 2.80664 16.1012 2.80664 14.7205V8.49786C2.80664 8.11518 2.84446 7.73661 2.91799 7.36698C3.00409 6.93417 2.97285 6.50524 2.84625 6.11313C3.21304 5.9254 3.53844 5.6442 3.78362 5.27728C3.993 4.96393 4.23396 4.66949 4.50457 4.39889C4.77519 4.12829 5.06965 3.88733 5.38303 3.67795C5.74999 3.43277 6.03121 3.10735 6.21896 2.74054C6.6111 2.86717 7.04006 2.89844 7.47291 2.81234C7.84256 2.73881 8.22117 2.70099 8.60388 2.70099H14.8268C16.2075 2.70099 17.3268 1.5817 17.3268 0.200989H24.7727C24.7727 1.5817 25.892 2.70099 27.2727 2.70099H39.7185C41.0993 2.70099 42.2185 1.5817 42.2185 0.200989H49.6644C49.6644 1.5817 50.7837 2.70099 52.1644 2.70099H58.3873C58.77 2.70099 59.1487 2.73881 59.5183 2.81234C59.9512 2.89844 60.3801 2.86717 60.7723 2.74054C60.96 3.10735 61.2412 3.43277 61.6082 3.67795C61.9216 3.88733 62.216 4.12829 62.4866 4.39889C62.7572 4.66949 62.9982 4.96393 63.2076 5.27728C63.4528 5.6442 63.7782 5.9254 64.145 6.11313C64.0184 6.50524 63.9871 6.93417 64.0732 7.36698C64.1468 7.73661 64.1846 8.11518 64.1846 8.49786V14.7205C64.1846 16.1012 65.3039 17.2205 66.6846 17.2205V24.6658C65.3039 24.6658 64.1846 25.7851 64.1846 27.1658V36.182C64.0824 35.7426 63.86 35.3255 63.5175 34.983L61.8726 33.3381L61.8723 33.3379C61.3686 32.8343 60.8201 32.3856 60.2362 31.9956C59.5762 31.5547 58.7826 31.4694 58.0814 31.6946C57.7448 31.0396 57.1232 30.5389 56.3448 30.3841C55.6561 30.2471 54.9509 30.1767 54.2387 30.1767C53.5265 30.1767 52.8213 30.2471 52.1327 30.3841C51.3542 30.5389 50.7326 31.0396 50.396 31.6946C49.6948 31.4694 48.9012 31.5547 48.2412 31.9956C47.6573 32.3856 47.1088 32.8343 46.6051 33.3379L46.6048 33.3381L44.9599 34.983C44.2126 35.7302 44.0373 36.8328 44.4339 37.7468C43.5199 37.3502 42.4173 37.5255 41.67 38.2727L40.0251 39.9176C40.0251 39.9176 40.0251 39.9176 40.025 39.9176L37.5887 37.4814C38.565 36.5051 38.565 34.9222 37.5886 33.9459L32.8322 29.1897L32.832 29.1894C32.3283 28.6859 31.7798 28.2371 31.1959 27.8471C30.5359 27.4063 29.7423 27.321 29.0411 27.5462C28.7044 26.8912 28.0829 26.3905 27.3044 26.2356C26.6157 26.0987 25.9106 26.0283 25.1984 26.0283C24.4861 26.0283 23.781 26.0987 23.0923 26.2356C22.3139 26.3905 21.6923 26.8912 21.3556 27.5462C20.6544 27.321 19.8608 27.4063 19.2008 27.8471C18.6169 28.2371 18.0685 28.6859 17.5648 29.1894L17.5645 29.1897L12.8081 33.9459C11.8318 34.9222 11.8317 36.5051 12.808 37.4814L6.83084 43.4583ZM41.7928 14.2947C40.4121 14.2947 39.2928 15.414 39.2928 16.7947C39.2928 18.1754 40.4121 19.2947 41.7928 19.2947H41.8032C41.8067 19.2947 41.8101 19.2947 41.8136 19.2947C41.817 19.2947 41.8205 19.2947 41.824 19.2947H41.8343C43.215 19.2947 44.3343 18.1754 44.3343 16.7947C44.3343 15.414 43.215 14.2947 41.8343 14.2947H41.824C41.8205 14.2947 41.817 14.2947 41.8136 14.2948C41.8101 14.2947 41.8067 14.2947 41.8032 14.2947H41.7928Z" stroke="#B5B5B5" stroke-width="5" stroke-linecap="round" stroke-linejoin="round" stroke-dasharray="10 10"/>
</svg>
