<svg width="39" height="27" viewBox="0 0 39 27" fill="none" xmlns="http://www.w3.org/2000/svg">
<path d="M37.6087 4.48291C37.17 2.85167 35.8838 1.56579 34.2528 1.12655C31.2732 0.311279 19.3544 0.311279 19.3544 0.311279C19.3544 0.311279 7.43607 0.311279 4.45643 1.09564C2.8568 1.53441 1.53931 2.85191 1.10053 4.48291C0.316406 7.46231 0.316406 13.6412 0.316406 13.6412C0.316406 13.6412 0.316406 19.8512 1.10053 22.7995C1.53978 24.4305 2.82543 25.7164 4.45667 26.1556C7.46745 26.9711 19.3549 26.9711 19.3549 26.9711C19.3549 26.9711 31.2732 26.9711 34.2528 26.1868C35.8841 25.7478 37.17 24.4619 37.6092 22.8309C38.3931 19.8512 38.3931 13.6726 38.3931 13.6726C38.3931 13.6726 38.4245 7.46231 37.6087 4.48291ZM15.5597 19.3495V7.93293L25.4708 13.6412L15.5597 19.3495Z" fill="white"/>
</svg>
