<svg width="42" height="42" viewBox="0 0 42 42" fill="none" xmlns="http://www.w3.org/2000/svg">
<g clip-path="url(#clip0_840_244)">
<path d="M41.3068 8.40669C39.7964 9.06923 38.187 9.50838 36.5091 9.72161C38.2353 8.691 39.5527 7.07146 40.1721 5.11938C38.5627 6.07892 36.7858 6.75669 34.8921 7.13492C33.3639 5.50777 31.1859 4.5 28.8099 4.5C24.2001 4.5 20.4889 8.24169 20.4889 12.8287C20.4889 13.4887 20.5447 14.1233 20.6818 14.7275C13.7594 14.3898 7.6341 11.0721 3.51925 6.018C2.80087 7.26438 2.37948 8.691 2.37948 10.2268C2.37948 13.1105 3.86448 15.6667 6.07802 17.1466C4.74025 17.1212 3.42787 16.7328 2.31602 16.1211C2.31602 16.1465 2.31602 16.1795 2.31602 16.2125C2.31602 20.2588 5.20225 23.6197 8.9871 24.3939C8.30933 24.5792 7.57064 24.6681 6.80402 24.6681C6.27094 24.6681 5.73279 24.6376 5.22764 24.5259C6.30648 27.8234 9.36787 30.2476 13.008 30.3263C10.1751 32.5424 6.5781 33.8776 2.6841 33.8776C2.00125 33.8776 1.34633 33.8471 0.691406 33.7634C4.37979 36.1419 8.75102 37.5 13.4649 37.5C28.7871 37.5 37.164 24.8077 37.164 13.806C37.164 13.4379 37.1513 13.0825 37.1336 12.7297C38.7861 11.5569 40.1746 10.0922 41.3068 8.40669Z" fill="white"/>
</g>
<defs>
<clipPath id="clip0_840_244">
<rect width="40.6154" height="40.6154" fill="white" transform="translate(0.691406 0.692261)"/>
</clipPath>
</defs>
</svg>
