<svg width="42" height="42" viewBox="0 0 42 42" fill="none" xmlns="http://www.w3.org/2000/svg">
<path d="M31.4424 3.41735C28.3313 1.60148 24.9332 0.693726 21.2491 0.693726C17.5645 0.693726 14.1666 1.60148 11.0553 3.41735C7.94412 5.23328 5.48054 7.69686 3.66503 10.8077C1.84916 13.9192 0.941406 17.3172 0.941406 21.0014C0.941406 25.1088 2.06032 28.8371 4.29942 32.1861C6.53809 35.536 9.47294 38.0125 13.1047 39.6163C13.0339 37.73 13.1486 36.1703 13.4485 34.9364L16.0662 23.8835C15.6254 23.0199 15.4052 21.9447 15.4052 20.6576C15.4052 19.1593 15.7842 17.9073 16.5421 16.903C17.2997 15.8978 18.2255 15.3952 19.3186 15.3952C20.1997 15.3952 20.8787 15.6857 21.3547 16.2682C21.8307 16.8497 22.0689 17.5815 22.0689 18.4627C22.0689 19.0095 21.9672 19.6751 21.765 20.4592C21.5619 21.2438 21.2976 22.1515 20.9718 23.1829C20.6456 24.2138 20.4122 25.0379 20.2709 25.6551C20.0237 26.7302 20.2267 27.6512 20.8791 28.4182C21.5309 29.1851 22.395 29.5683 23.4705 29.5683C25.3569 29.5683 26.9037 28.5198 28.1114 26.4219C29.3188 24.3241 29.9226 21.7768 29.9226 18.7797C29.9226 16.4707 29.178 14.5929 27.6883 13.1475C26.1986 11.7024 24.1225 10.9792 21.4612 10.9792C18.4816 10.9792 16.0709 11.9359 14.2292 13.8479C12.3871 15.7608 11.466 18.0484 11.466 20.7094C11.466 22.2961 11.9158 23.6274 12.8145 24.7026C13.1141 25.0553 13.2111 25.434 13.1055 25.8391C13.0699 25.9451 12.9995 26.2094 12.8939 26.6322C12.7884 27.055 12.7176 27.3289 12.6824 27.4519C12.5411 28.0164 12.2064 28.1928 11.6772 27.9808C10.3197 27.4167 9.28829 26.4386 8.58356 25.0459C7.87841 23.6535 7.52601 22.0407 7.52601 20.2072C7.52601 19.0261 7.71529 17.8449 8.09427 16.6638C8.47325 15.4826 9.06339 14.3414 9.86602 13.2392C10.6677 12.1383 11.6287 11.1636 12.7485 10.3177C13.8678 9.47128 15.2297 8.7932 16.834 8.28111C18.4379 7.77036 20.1658 7.5146 22.0168 7.5146C24.5199 7.5146 26.7677 8.06995 28.7595 9.18024C30.7513 10.291 32.272 11.728 33.3209 13.4906C34.3694 15.2533 34.8943 17.1392 34.8943 19.1495C34.8943 21.7937 34.4356 24.1737 33.5193 26.2892C32.6026 28.4047 31.3068 30.066 29.632 31.2734C27.9568 32.4807 26.053 33.0846 23.9203 33.0846C22.8448 33.0846 21.84 32.8335 20.9057 32.3308C19.9709 31.8283 19.3276 31.2335 18.9752 30.5458C18.1821 33.6656 17.7061 35.5263 17.5473 36.125C17.2121 37.3769 16.5245 38.822 15.4846 40.4615C17.3709 41.0256 19.2923 41.3074 21.2491 41.3074C24.9333 41.3074 28.3313 40.3997 31.4424 38.5843C34.5536 36.7683 37.0172 34.3048 38.8332 31.1931C40.6486 28.0818 41.5569 24.6843 41.5569 20.9997C41.5569 17.3151 40.6486 13.9176 38.8332 10.806C37.0176 7.69686 34.5536 5.23328 31.4424 3.41735Z" fill="white"/>
</svg>
