<svg width="38" height="38" viewBox="0 0 38 38" fill="none" xmlns="http://www.w3.org/2000/svg">
<path d="M24.8737 13.1259C24.7266 12.9775 24.5514 12.8597 24.3585 12.7793C24.1655 12.6989 23.9586 12.6576 23.7496 12.6576C23.5406 12.6576 23.3336 12.6989 23.1407 12.7793C22.9477 12.8597 22.7726 12.9775 22.6254 13.1259L18.9996 16.7676L15.3737 13.1259C15.0756 12.8278 14.6712 12.6603 14.2496 12.6603C13.8279 12.6603 13.4236 12.8278 13.1254 13.1259C12.8273 13.424 12.6598 13.8284 12.6598 14.2501C12.6598 14.6717 12.8273 15.0761 13.1254 15.3742L16.7671 19.0001L13.1254 22.6259C12.977 22.7731 12.8592 22.9482 12.7788 23.1412C12.6984 23.3341 12.6571 23.541 12.6571 23.7501C12.6571 23.9591 12.6984 24.166 12.7788 24.359C12.8592 24.5519 12.977 24.727 13.1254 24.8742C13.2726 25.0226 13.4477 25.1404 13.6407 25.2208C13.8336 25.3012 14.0406 25.3426 14.2496 25.3426C14.4586 25.3426 14.6655 25.3012 14.8585 25.2208C15.0514 25.1404 15.2266 25.0226 15.3737 24.8742L18.9996 21.2326L22.6254 24.8742C22.7726 25.0226 22.9477 25.1404 23.1407 25.2208C23.3336 25.3012 23.5406 25.3426 23.7496 25.3426C23.9586 25.3426 24.1655 25.3012 24.3585 25.2208C24.5514 25.1404 24.7266 25.0226 24.8737 24.8742C25.0221 24.727 25.1399 24.5519 25.2203 24.359C25.3007 24.166 25.3421 23.9591 25.3421 23.7501C25.3421 23.541 25.3007 23.3341 25.2203 23.1412C25.1399 22.9482 25.0221 22.7731 24.8737 22.6259L21.2321 19.0001L24.8737 15.3742C25.0221 15.227 25.1399 15.0519 25.2203 14.859C25.3007 14.666 25.3421 14.4591 25.3421 14.2501C25.3421 14.041 25.3007 13.8341 25.2203 13.6412C25.1399 13.4482 25.0221 13.2731 24.8737 13.1259ZM30.1937 7.8059C28.7332 6.29365 26.986 5.08744 25.0543 4.25763C23.1226 3.42782 21.0449 2.99103 18.9426 2.97277C16.8403 2.9545 14.7553 3.35511 12.8095 4.15122C10.8636 4.94734 9.09579 6.12301 7.60916 7.60964C6.12252 9.09628 4.94685 10.8641 4.15073 12.81C3.35462 14.7558 2.95401 16.8407 2.97228 18.9431C2.99055 21.0454 3.42733 23.1231 4.25714 25.0548C5.08695 26.9865 6.29316 28.7337 7.80541 30.1942C9.26598 31.7065 11.0131 32.9127 12.9448 33.7425C14.8766 34.5723 16.9542 35.0091 19.0566 35.0274C21.1589 35.0456 23.2438 34.645 25.1897 33.8489C27.1355 33.0528 28.9034 31.8771 30.39 30.3905C31.8766 28.9039 33.0523 27.136 33.8484 25.1902C34.6445 23.2443 35.0451 21.1594 35.0269 19.057C35.0086 16.9547 34.5718 14.8771 33.742 12.9453C32.9122 11.0136 31.706 9.26647 30.1937 7.8059ZM27.9612 27.9617C25.8903 30.035 23.1646 31.326 20.2485 31.615C17.3324 31.9039 14.4063 31.1728 11.9688 29.5463C9.5313 27.9198 7.73314 25.4984 6.8807 22.6947C6.02826 19.8911 6.17427 16.8786 7.29386 14.1706C8.41344 11.4625 10.4373 9.22638 13.0207 7.8432C15.6041 6.46003 18.5872 6.01535 21.4617 6.58495C24.3362 7.15454 26.9242 8.70316 28.785 10.967C30.6457 13.2308 31.6639 16.0697 31.6662 19.0001C31.6719 20.6646 31.3473 22.3137 30.7114 23.852C30.0754 25.3903 29.1407 26.7871 27.9612 27.9617Z" fill="black" fill-opacity="0.65"/>
</svg>
