<svg width="30" height="30" viewBox="0 0 30 30" fill="none" xmlns="http://www.w3.org/2000/svg">
<path fill-rule="evenodd" clip-rule="evenodd" d="M12.5999 23.2412H4.72363C4.20613 23.2412 3.78613 22.8212 3.78613 22.3037C3.78613 21.7862 4.20613 21.3662 4.72363 21.3662H12.5999C13.1174 21.3662 13.5374 21.7862 13.5374 22.3037C13.5374 22.8212 13.1174 23.2412 12.5999 23.2412Z" fill="black"/>
<path fill-rule="evenodd" clip-rule="evenodd" d="M23.9883 11.1255H16.1133C15.5958 11.1255 15.1758 10.7055 15.1758 10.188C15.1758 9.67049 15.5958 9.25049 16.1133 9.25049H23.9883C24.5058 9.25049 24.9258 9.67049 24.9258 10.188C24.9258 10.7055 24.5058 11.1255 23.9883 11.1255Z" fill="black"/>
<mask id="mask0_2287_1480" style="mask-type:luminance" maskUnits="userSpaceOnUse" x="3" y="6" width="9" height="8">
<path fill-rule="evenodd" clip-rule="evenodd" d="M3.75 6.25049H11.5322V13.99H3.75V6.25049Z" fill="white"/>
</mask>
<g mask="url(#mask0_2287_1480)">
<path fill-rule="evenodd" clip-rule="evenodd" d="M7.64125 8.125C6.53 8.125 5.625 9.02 5.625 10.1212C5.625 11.2213 6.53 12.115 7.64125 12.115C8.75375 12.115 9.6575 11.2213 9.6575 10.1212C9.6575 9.02 8.75375 8.125 7.64125 8.125ZM7.64125 13.99C5.49625 13.99 3.75 12.255 3.75 10.1212C3.75 7.9875 5.49625 6.25 7.64125 6.25C9.7875 6.25 11.5325 7.9875 11.5325 10.1212C11.5325 12.255 9.7875 13.99 7.64125 13.99Z" fill="black"/>
</g>
<path fill-rule="evenodd" clip-rule="evenodd" d="M21.7343 20.2598C20.6218 20.2598 19.7168 21.1548 19.7168 22.2548C19.7168 23.356 20.6218 24.2498 21.7343 24.2498C22.8455 24.2498 23.7493 23.356 23.7493 22.2548C23.7493 21.1548 22.8455 20.2598 21.7343 20.2598ZM21.7343 26.1248C19.588 26.1248 17.8418 24.3885 17.8418 22.2548C17.8418 20.121 19.588 18.3848 21.7343 18.3848C23.8793 18.3848 25.6243 20.121 25.6243 22.2548C25.6243 24.3885 23.8793 26.1248 21.7343 26.1248Z" fill="black"/>
</svg>
