<svg width="32" height="32" viewBox="0 0 32 32" fill="none" xmlns="http://www.w3.org/2000/svg">
<circle cx="16" cy="16" r="16" fill="#4D7AD2"/>
<g clip-path="url(#clip0_2273_685)">
<path d="M17.7306 16.0003C17.7306 16.9561 16.9556 17.7311 15.9998 17.7311C15.044 17.7311 14.269 16.9561 14.269 16.0003C14.269 15.0445 15.044 14.2695 15.9998 14.2695C16.9556 14.2695 17.7306 15.0445 17.7306 16.0003Z" fill="#DADADA"/>
<path d="M18.9229 10.7695H13.0767C11.8042 10.7695 10.769 11.8047 10.769 13.0772V18.9234C10.769 20.1959 11.8042 21.2311 13.0767 21.2311H18.9229C20.1954 21.2311 21.2306 20.1959 21.2306 18.9234V13.0772C21.2306 11.8047 20.1954 10.7695 18.9229 10.7695ZM15.9998 18.8849C14.4092 18.8849 13.1152 17.5909 13.1152 16.0003C13.1152 14.4097 14.4092 13.1157 15.9998 13.1157C17.5904 13.1157 18.8844 14.4097 18.8844 16.0003C18.8844 17.5909 17.5904 18.8849 15.9998 18.8849ZM19.3075 13.2695C18.9888 13.2695 18.7306 13.0113 18.7306 12.6926C18.7306 12.3739 18.9888 12.1157 19.3075 12.1157C19.6262 12.1157 19.8844 12.3739 19.8844 12.6926C19.8844 13.0113 19.6262 13.2695 19.3075 13.2695Z" fill="#DADADA"/>
<path d="M20.6538 6.15381H11.3461C8.48314 6.15381 6.15381 8.48314 6.15381 11.3461V20.6538C6.15381 23.5168 8.48314 25.8461 11.3461 25.8461H20.6538C23.5168 25.8461 25.8461 23.5168 25.8461 20.6538V11.3461C25.8461 8.48314 23.5168 6.15381 20.6538 6.15381ZM22.3846 18.923C22.3846 20.8317 20.8317 22.3846 18.923 22.3846H13.0769C11.1682 22.3846 9.61535 20.8317 9.61535 18.923V13.0769C9.61535 11.1682 11.1682 9.61535 13.0769 9.61535H18.923C20.8317 9.61535 22.3846 11.1682 22.3846 13.0769V18.923Z" fill="#DADADA"/>
</g>
<defs>
<clipPath id="clip0_2273_685">
<rect width="19.6923" height="19.6923" fill="white" transform="translate(6.15381 6.15381)"/>
</clipPath>
</defs>
</svg>
