<svg width="32" height="32" viewBox="0 0 32 32" fill="none" xmlns="http://www.w3.org/2000/svg">
<circle cx="16" cy="16" r="16" fill="#D9F5EE"/>
<g clip-path="url(#clip0_1166_929)">
<path d="M17.7301 16.0003C17.7301 16.9561 16.9552 17.7311 15.9993 17.7311C15.0435 17.7311 14.2686 16.9561 14.2686 16.0003C14.2686 15.0445 15.0435 14.2695 15.9993 14.2695C16.9552 14.2695 17.7301 15.0445 17.7301 16.0003Z" fill="#252A34"/>
<path d="M18.9224 10.7695H13.0762C11.8037 10.7695 10.7686 11.8047 10.7686 13.0772V18.9234C10.7686 20.1959 11.8037 21.2311 13.0762 21.2311H18.9224C20.1949 21.2311 21.2301 20.1959 21.2301 18.9234V13.0772C21.2301 11.8047 20.1949 10.7695 18.9224 10.7695ZM15.9993 18.8849C14.4087 18.8849 13.1147 17.5909 13.1147 16.0003C13.1147 14.4097 14.4087 13.1157 15.9993 13.1157C17.5899 13.1157 18.8839 14.4097 18.8839 16.0003C18.8839 17.5909 17.5899 18.8849 15.9993 18.8849ZM19.307 13.2695C18.9884 13.2695 18.7301 13.0113 18.7301 12.6926C18.7301 12.3739 18.9884 12.1157 19.307 12.1157C19.6257 12.1157 19.8839 12.3739 19.8839 12.6926C19.8839 13.0113 19.6257 13.2695 19.307 13.2695Z" fill="#252A34"/>
<path d="M20.6533 6.15381H11.3456C8.48265 6.15381 6.15332 8.48314 6.15332 11.3461V20.6538C6.15332 23.5168 8.48265 25.8461 11.3456 25.8461H20.6533C23.5163 25.8461 25.8456 23.5168 25.8456 20.6538V11.3461C25.8456 8.48314 23.5163 6.15381 20.6533 6.15381ZM22.3841 18.923C22.3841 20.8317 20.8312 22.3846 18.9226 22.3846H13.0764C11.1677 22.3846 9.61486 20.8317 9.61486 18.923V13.0769C9.61486 11.1682 11.1677 9.61535 13.0764 9.61535H18.9226C20.8312 9.61535 22.3841 11.1682 22.3841 13.0769V18.923Z" fill="#252A34"/>
</g>
<defs>
<clipPath id="clip0_1166_929">
<rect width="19.6923" height="19.6923" fill="white" transform="translate(6.15332 6.15381)"/>
</clipPath>
</defs>
</svg>
