<svg width="32" height="32" viewBox="0 0 32 32" fill="none" xmlns="http://www.w3.org/2000/svg">
<circle cx="16" cy="16" r="16" fill="#D9F5EE"/>
<g clip-path="url(#clip0_1166_936)">
<path d="M20.9417 7.47484C19.4333 6.59442 17.7857 6.1543 15.9995 6.1543C14.213 6.1543 12.5655 6.59442 11.057 7.47484C9.54858 8.35529 8.35411 9.54976 7.47386 11.058C6.59344 12.5667 6.15332 14.2141 6.15332 16.0005C6.15332 17.9919 6.69583 19.7996 7.78145 21.4233C8.86687 23.0475 10.2898 24.2482 12.0507 25.0258C12.0164 24.1113 12.0719 23.3551 12.2174 22.7568L13.4865 17.3978C13.2728 16.9791 13.1661 16.4578 13.1661 15.8337C13.1661 15.1073 13.3498 14.5003 13.7173 14.0133C14.0846 13.526 14.5335 13.2823 15.0635 13.2823C15.4907 13.2823 15.8199 13.4232 16.0507 13.7055C16.2815 13.9875 16.397 14.3423 16.397 14.7695C16.397 15.0347 16.3476 15.3574 16.2496 15.7376C16.1512 16.118 16.023 16.5581 15.865 17.0581C15.7069 17.558 15.5937 17.9575 15.5252 18.2568C15.4054 18.778 15.5038 19.2246 15.8201 19.5965C16.1361 19.9683 16.5551 20.1541 17.0765 20.1541C17.9911 20.1541 18.7411 19.6457 19.3267 18.6286C19.9121 17.6114 20.2048 16.3764 20.2048 14.9233C20.2048 13.8037 19.8438 12.8933 19.1215 12.1925C18.3992 11.4918 17.3926 11.1412 16.1023 11.1412C14.6577 11.1412 13.4888 11.6051 12.5959 12.5321C11.7028 13.4596 11.2562 14.5687 11.2562 15.8589C11.2562 16.6282 11.4743 17.2737 11.91 17.795C12.0553 17.966 12.1023 18.1496 12.0511 18.346C12.0338 18.3974 11.9997 18.5256 11.9485 18.7305C11.8973 18.9355 11.863 19.0683 11.8459 19.128C11.7774 19.4017 11.6151 19.4872 11.3585 19.3844C10.7004 19.1109 10.2003 18.6367 9.85861 17.9614C9.51672 17.2863 9.34585 16.5043 9.34585 15.6154C9.34585 15.0427 9.43763 14.47 9.62137 13.8973C9.80512 13.3247 10.0913 12.7714 10.4804 12.237C10.8691 11.7032 11.3351 11.2306 11.878 10.8205C12.4207 10.4101 13.081 10.0813 13.8588 9.83303C14.6365 9.58539 15.4742 9.46138 16.3717 9.46138C17.5853 9.46138 18.6751 9.73065 19.6409 10.269C20.6066 10.8075 21.3439 11.5042 21.8525 12.3588C22.3608 13.2135 22.6153 14.1278 22.6153 15.1026C22.6153 16.3846 22.3929 17.5385 21.9487 18.5642C21.5042 19.5899 20.8759 20.3954 20.0639 20.9808C19.2517 21.5662 18.3286 21.859 17.2946 21.859C16.7732 21.859 16.286 21.7372 15.833 21.4935C15.3797 21.2498 15.0678 20.9614 14.897 20.628C14.5124 22.1407 14.2816 23.0428 14.2047 23.3331C14.0421 23.9401 13.7088 24.6407 13.2046 25.4357C14.1191 25.7091 15.0507 25.8458 15.9995 25.8458C17.7857 25.8458 19.4333 25.4057 20.9417 24.5255C22.4501 23.645 23.6446 22.4506 24.5251 20.9419C25.4053 19.4334 25.8457 17.7861 25.8457 15.9996C25.8457 14.2131 25.4053 12.5659 24.5251 11.0572C23.6448 9.54976 22.4501 8.35529 20.9417 7.47484Z" fill="#252A34"/>
</g>
<defs>
<clipPath id="clip0_1166_936">
<rect width="19.6923" height="19.6923" fill="white" transform="translate(6.15332 6.15381)"/>
</clipPath>
</defs>
</svg>
