<svg width="32" height="32" viewBox="0 0 32 32" fill="none" xmlns="http://www.w3.org/2000/svg">
<circle cx="16" cy="16" r="16" fill="#D9F5EE"/>
<g clip-path="url(#clip0_1166_922)">
<path d="M25.8456 9.89415C25.1133 10.2154 24.333 10.4283 23.5195 10.5317C24.3564 10.032 24.9952 9.24677 25.2955 8.30031C24.5152 8.76554 23.6536 9.09415 22.7355 9.27754C21.9945 8.48862 20.9385 8 19.7865 8C17.5515 8 15.7521 9.81415 15.7521 12.0382C15.7521 12.3582 15.7792 12.6658 15.8456 12.9588C12.4893 12.7951 9.51947 11.1865 7.5244 8.736C7.17609 9.34031 6.97178 10.032 6.97178 10.7766C6.97178 12.1748 7.69178 13.4142 8.76501 14.1317C8.1164 14.1194 7.48009 13.9311 6.94101 13.6345C6.94101 13.6468 6.94101 13.6628 6.94101 13.6788C6.94101 15.6406 8.3404 17.2702 10.1755 17.6455C9.84686 17.7354 9.4887 17.7785 9.11701 17.7785C8.85855 17.7785 8.59763 17.7637 8.3527 17.7095C8.87578 19.3083 10.3601 20.4837 12.125 20.5218C10.7515 21.5963 9.00747 22.2437 7.11947 22.2437C6.7884 22.2437 6.47086 22.2289 6.15332 22.1883C7.94163 23.3415 10.061 24 12.3466 24C19.7755 24 23.837 17.8462 23.837 12.512C23.837 12.3335 23.8309 12.1612 23.8222 11.9902C24.6235 11.4215 25.2967 10.7114 25.8456 9.89415Z" fill="#252A34"/>
</g>
<defs>
<clipPath id="clip0_1166_922">
<rect width="19.6923" height="19.6923" fill="white" transform="translate(6.15332 6.15381)"/>
</clipPath>
</defs>
</svg>
