<svg width="32" height="32" viewBox="0 0 32 32" fill="none" xmlns="http://www.w3.org/2000/svg">
<circle cx="16" cy="16" r="16" fill="#D9F5EE"/>
<g clip-path="url(#clip0_1166_943)">
<path d="M24.8409 11.3859C24.6282 10.595 24.0046 9.97153 23.2138 9.75856C21.7691 9.36328 15.9903 9.36328 15.9903 9.36328C15.9903 9.36328 10.2117 9.36328 8.76705 9.74358C7.99147 9.95632 7.35269 10.5951 7.13995 11.3859C6.75977 12.8304 6.75977 15.8263 6.75977 15.8263C6.75977 15.8263 6.75977 18.8372 7.13995 20.2667C7.35291 21.0574 7.97626 21.6809 8.76716 21.8939C10.2269 22.2893 15.9905 22.2893 15.9905 22.2893C15.9905 22.2893 21.7691 22.2893 23.2138 21.909C24.0047 21.6961 24.6282 21.0727 24.8411 20.2819C25.2212 18.8372 25.2212 15.8415 25.2212 15.8415C25.2212 15.8415 25.2364 12.8304 24.8409 11.3859ZM14.1505 18.5939V13.0586L18.9558 15.8263L14.1505 18.5939Z" fill="#252A34"/>
</g>
<defs>
<clipPath id="clip0_1166_943">
<rect width="19.6923" height="19.6923" fill="white" transform="translate(6.15332 6.15381)"/>
</clipPath>
</defs>
</svg>
