<svg width="24" height="24" viewBox="0 0 24 24" fill="none" xmlns="http://www.w3.org/2000/svg">
<path d="M19 10H17C15 10 14 9 14 7V5C14 3 15 2 17 2H19C21 2 22 3 22 5V7C22 9 21 10 19 10Z" stroke="white" stroke-width="1.5" stroke-miterlimit="10" stroke-linecap="round" stroke-linejoin="round"/>
<path d="M7 10H5C3 10 2 9 2 7V5C2 3 3 2 5 2H7C9 2 10 3 10 5V7C10 9 9 10 7 10Z" stroke="white" stroke-width="1.5" stroke-miterlimit="10" stroke-linecap="round" stroke-linejoin="round"/>
<path d="M7 22H5C3 22 2 21 2 19V17C2 15 3 14 5 14H7C9 14 10 15 10 17V19C10 21 9 22 7 22Z" stroke="white" stroke-width="1.5" stroke-miterlimit="10" stroke-linecap="round" stroke-linejoin="round"/>
<path d="M19 22H17C15 22 14 21 14 19V17C14 15 15 14 17 14H19C21 14 22 15 22 17V19C22 21 21 22 19 22Z" stroke="white" stroke-width="1.5" stroke-miterlimit="10" stroke-linecap="round" stroke-linejoin="round"/>
</svg>
