<svg width="24" height="24" viewBox="0 0 24 24" fill="none" xmlns="http://www.w3.org/2000/svg">
<path d="M11.8395 10.87C11.9395 10.86 12.0595 10.86 12.1695 10.87C14.5495 10.79 16.4395 8.84 16.4395 6.44C16.4395 3.99 14.4595 2 11.9995 2C9.54945 2 7.55945 3.99 7.55945 6.44C7.56945 8.84 9.45945 10.79 11.8395 10.87Z" stroke="#808080" stroke-width="1.5" stroke-linecap="round" stroke-linejoin="round"/>
<path d="M16.8393 14.56C19.2593 16.18 19.2593 18.82 16.8393 20.43C14.0893 22.27 9.5793 22.27 6.8293 20.43C4.4093 18.81 4.4093 16.17 6.8293 14.56C9.5693 12.73 14.0793 12.73 16.8393 14.56Z" stroke="#808080" stroke-width="1.5" stroke-linecap="round" stroke-linejoin="round"/>
</svg>
