<svg width="266" height="87" viewBox="0 0 266 87" fill="none" xmlns="http://www.w3.org/2000/svg">
<g clip-path="url(#clip0_839_1860)">
<rect width="265" height="86.7" rx="4" transform="matrix(-1 0 0 1 265.5 0.150024)" fill="#427A5B"/>
<path d="M-480.83 331.115L831.143 -4652.05H492.336L-819.637 331.115H-480.83Z" fill="#FFCA66"/>
<path d="M-894.815 3468.79L417.158 -1514.38H78.352L-1233.62 3468.79H-894.815Z" fill="#B4CD93"/>
<path d="M-220.517 1896.44L423.307 -553.196H257.045L-386.779 1896.44H-220.517Z" fill="#FF896B"/>
<path d="M-50.5222 471.318L359.773 -1088.1H253.818L-156.478 471.318H-50.5222Z" fill="#FFCA66"/>
<path d="M118.832 845.099L386.416 -169.953H317.315L49.7305 845.099H118.832Z" fill="#FFCA66"/>
<path d="M-310.924 601.929L199.918 -1340.18H67.9971L-442.845 601.929H-310.924Z" fill="#FF896B"/>
<path d="M230.124 335.503L740.967 -1606.6H609.046L98.2036 335.503H230.124Z" fill="#B4CD93"/>
</g>
<defs>
<clipPath id="clip0_839_1860">
<rect width="265" height="86.7" rx="4" transform="matrix(-1 0 0 1 265.5 0.150024)" fill="white"/>
</clipPath>
</defs>
</svg>
