<svg width="327" height="318" viewBox="0 0 327 318" fill="none" xmlns="http://www.w3.org/2000/svg">
<g filter="url(#filter0_d_1387_1781)">
<rect x="15" y="15" width="296.993" height="287.874" rx="25" fill="white"/>
<rect x="15.75" y="15.75" width="295.493" height="286.374" rx="24.25" stroke="#B5B5B5" stroke-width="1.5" stroke-dasharray="10 10"/>
</g>
<path d="M130.391 197.365C130.301 197.365 130.176 197.359 130.013 197.347C129.851 197.335 129.676 197.29 129.49 197.213C129.401 197.716 129.232 198.193 128.985 198.643C128.741 199.098 128.439 199.522 128.078 199.916C127.716 200.313 127.305 200.679 126.842 201.011C126.379 201.344 125.886 201.642 125.363 201.906L124.249 200.366C124.537 200.22 124.827 200.06 125.119 199.885C125.412 199.715 125.689 199.532 125.953 199.337C126.221 199.147 126.469 198.946 126.696 198.735C126.927 198.528 127.128 198.313 127.298 198.09C127.469 197.866 127.603 197.637 127.7 197.402C127.798 197.17 127.846 196.935 127.846 196.696C127.846 196.683 127.844 196.665 127.84 196.641C127.84 196.617 127.84 196.592 127.84 196.568C127.84 196.543 127.838 196.525 127.834 196.513C127.834 196.501 127.834 196.503 127.834 196.519V196.525C127.806 196.29 127.765 196.065 127.712 195.85C127.66 195.634 127.593 195.415 127.512 195.192C127.434 194.969 127.343 194.736 127.238 194.492C127.132 194.245 127.014 193.975 126.885 193.683L128.644 192.916C128.806 193.403 128.958 193.808 129.1 194.133C129.242 194.458 129.38 194.717 129.514 194.912C129.652 195.107 129.79 195.245 129.928 195.326C130.066 195.403 130.212 195.442 130.366 195.442H130.397C130.531 195.442 130.656 195.468 130.774 195.521C130.892 195.574 130.993 195.645 131.078 195.734C131.168 195.819 131.237 195.921 131.285 196.038C131.338 196.156 131.365 196.28 131.365 196.41C131.365 196.543 131.338 196.669 131.285 196.787C131.237 196.905 131.168 197.006 131.078 197.091C130.993 197.177 130.892 197.243 130.774 197.292C130.656 197.341 130.529 197.365 130.391 197.365ZM134.958 199.368L133.789 200.543L132.633 199.386L131.488 200.53L130.307 199.356L131.476 198.181L132.633 199.337L133.777 198.193L134.958 199.368ZM129.072 196.403C129.072 196.27 129.098 196.144 129.151 196.026C129.2 195.908 129.267 195.807 129.352 195.722C129.437 195.632 129.538 195.563 129.656 195.515C129.774 195.466 129.9 195.442 130.034 195.442H130.709H131.001C131.184 195.442 131.385 195.434 131.604 195.417C131.823 195.401 132.034 195.375 132.237 195.338C132.44 195.302 132.623 195.253 132.785 195.192C132.951 195.127 133.073 195.046 133.15 194.949C133.195 194.88 133.217 194.786 133.217 194.669C133.217 194.494 133.174 194.287 133.089 194.048C133.008 193.808 132.911 193.565 132.797 193.317C132.683 193.07 132.566 192.832 132.444 192.605C132.326 192.378 132.231 192.189 132.158 192.039L133.893 191.187C134.018 191.406 134.14 191.666 134.258 191.966C134.376 192.262 134.481 192.569 134.574 192.885C134.668 193.198 134.743 193.506 134.8 193.81C134.856 194.111 134.885 194.372 134.885 194.596C134.885 195.006 134.812 195.381 134.666 195.722C134.495 196.103 134.262 196.42 133.966 196.671C133.669 196.919 133.314 197.101 132.9 197.219C132.779 197.252 132.627 197.278 132.444 197.298C132.261 197.319 132.077 197.333 131.89 197.341C131.703 197.353 131.527 197.359 131.36 197.359C131.194 197.363 131.064 197.365 130.971 197.365H130.088H130.034C129.9 197.365 129.774 197.341 129.656 197.292C129.538 197.243 129.437 197.174 129.352 197.085C129.267 197 129.2 196.899 129.151 196.781C129.098 196.663 129.072 196.537 129.072 196.403ZM135.376 199.782C135.948 199.668 136.465 199.524 136.928 199.35C137.394 199.179 137.802 198.986 138.151 198.771C138.504 198.56 138.794 198.335 139.022 198.096C139.249 197.856 139.411 197.613 139.509 197.365C139.334 197.365 139.158 197.361 138.979 197.353C138.8 197.349 138.648 197.343 138.522 197.335C138.052 197.294 137.622 197.189 137.232 197.018C136.842 196.852 136.532 196.625 136.301 196.337C136.13 196.117 136.009 195.88 135.936 195.624C135.867 195.369 135.832 195.099 135.832 194.815C135.832 194.596 135.852 194.377 135.893 194.157C135.933 193.934 135.99 193.719 136.063 193.512C136.136 193.301 136.222 193.102 136.319 192.916C136.42 192.729 136.528 192.559 136.642 192.404C136.885 192.1 137.151 191.871 137.439 191.717C137.731 191.558 138.038 191.479 138.358 191.479C139.044 191.479 139.663 191.779 140.215 192.38C140.385 192.571 140.539 192.782 140.677 193.013C140.815 193.244 140.937 193.492 141.042 193.756C141.148 194.015 141.233 194.287 141.298 194.571C141.367 194.855 141.414 195.146 141.438 195.442H141.554C141.688 195.442 141.813 195.466 141.931 195.515C142.049 195.563 142.15 195.632 142.236 195.722C142.325 195.807 142.396 195.908 142.449 196.026C142.501 196.144 142.528 196.272 142.528 196.41C142.528 196.539 142.501 196.663 142.449 196.781C142.396 196.894 142.325 196.994 142.236 197.079C142.15 197.168 142.049 197.237 141.931 197.286C141.813 197.339 141.688 197.365 141.554 197.365H141.286C141.128 197.962 140.874 198.501 140.525 198.984C140.18 199.467 139.766 199.889 139.283 200.25C138.804 200.612 138.269 200.91 137.676 201.145C137.088 201.381 136.471 201.549 135.826 201.65L135.376 199.782ZM138.358 193.409C138.269 193.409 138.169 193.449 138.06 193.53C137.954 193.608 137.855 193.707 137.762 193.829C137.668 193.95 137.589 194.086 137.524 194.237C137.463 194.387 137.433 194.533 137.433 194.675C137.433 194.813 137.471 194.926 137.549 195.016C137.626 195.105 137.723 195.178 137.841 195.235C137.962 195.288 138.094 195.328 138.236 195.357C138.378 195.381 138.516 195.399 138.65 195.411C138.723 195.419 138.802 195.426 138.888 195.43C138.977 195.43 139.068 195.43 139.162 195.43C139.255 195.43 139.346 195.432 139.436 195.436C139.529 195.436 139.614 195.438 139.691 195.442C139.663 195.243 139.618 195.056 139.557 194.882C139.496 194.707 139.427 194.545 139.35 194.395C139.277 194.245 139.196 194.111 139.107 193.993C139.022 193.871 138.938 193.766 138.857 193.677C138.829 193.648 138.792 193.618 138.748 193.585C138.707 193.553 138.664 193.524 138.62 193.5C138.575 193.472 138.529 193.449 138.48 193.433C138.435 193.417 138.395 193.409 138.358 193.409ZM140.581 196.41C140.581 196.276 140.607 196.15 140.66 196.032C140.709 195.914 140.776 195.813 140.861 195.728C140.946 195.639 141.048 195.57 141.165 195.521C141.283 195.468 141.409 195.442 141.543 195.442H141.598H141.591C142.013 195.43 142.285 195.393 142.407 195.332C142.549 195.263 142.673 195.158 142.778 195.016C142.839 194.939 142.894 194.847 142.943 194.742C142.995 194.636 143.052 194.492 143.113 194.31C143.174 194.123 143.243 193.886 143.32 193.597C143.401 193.309 143.501 192.942 143.618 192.496L145.213 193.007C145.148 193.177 145.1 193.342 145.067 193.5C145.035 193.654 145.014 193.806 145.006 193.957C145.002 194.107 145.006 194.257 145.018 194.407C145.035 194.553 145.055 194.705 145.079 194.863C145.156 194.73 145.25 194.575 145.359 194.401C145.473 194.222 145.597 194.038 145.731 193.847C145.869 193.656 146.015 193.468 146.169 193.281C146.323 193.09 146.483 192.914 146.65 192.751C147.043 192.382 147.465 192.08 147.916 191.844C148.37 191.605 148.835 191.441 149.31 191.351C149.44 191.327 149.561 191.311 149.675 191.303C149.789 191.29 149.898 191.284 150.004 191.284C150.446 191.284 150.86 191.359 151.245 191.51C151.635 191.656 151.976 191.881 152.268 192.185C152.54 192.469 152.735 192.782 152.852 193.123C152.974 193.463 153.025 193.812 153.004 194.17C152.984 194.405 152.925 194.628 152.828 194.839C152.735 195.046 152.635 195.247 152.53 195.442H153.315C153.449 195.442 153.575 195.468 153.692 195.521C153.81 195.57 153.911 195.639 153.997 195.728C154.086 195.813 154.157 195.914 154.21 196.032C154.262 196.15 154.289 196.276 154.289 196.41C154.289 196.543 154.262 196.669 154.21 196.787C154.157 196.905 154.086 197.006 153.997 197.091C153.911 197.177 153.81 197.243 153.692 197.292C153.575 197.341 153.449 197.365 153.315 197.365L151.781 197.371C151.566 197.371 151.373 197.369 151.203 197.365C151.036 197.361 150.886 197.353 150.752 197.341C150.618 197.333 150.499 197.317 150.393 197.292C150.288 197.272 150.188 197.243 150.095 197.207C149.884 197.264 149.667 197.308 149.444 197.341C149.224 197.377 149.005 197.406 148.786 197.426C148.571 197.446 148.358 197.461 148.147 197.469C147.936 197.477 147.737 197.481 147.551 197.481C147.193 197.481 146.851 197.475 146.522 197.463C146.197 197.45 145.887 197.406 145.591 197.329C145.298 197.256 145.02 197.14 144.757 196.982C144.497 196.823 144.255 196.598 144.032 196.306C144.004 196.387 143.959 196.464 143.898 196.537C143.838 196.61 143.769 196.679 143.691 196.744C143.614 196.809 143.535 196.868 143.454 196.921C143.373 196.97 143.3 197.01 143.235 197.043C142.784 197.258 142.22 197.365 141.543 197.365C141.409 197.365 141.283 197.341 141.165 197.292C141.048 197.243 140.946 197.177 140.861 197.091C140.776 197.006 140.709 196.905 140.66 196.787C140.607 196.669 140.581 196.543 140.581 196.41ZM147.77 194.054C147.652 194.168 147.536 194.287 147.423 194.413C147.309 194.539 147.202 194.665 147.1 194.79C146.999 194.912 146.905 195.032 146.82 195.15C146.735 195.267 146.662 195.375 146.601 195.472C146.755 195.488 146.932 195.501 147.131 195.509C147.333 195.517 147.518 195.521 147.684 195.521C147.956 195.521 148.232 195.511 148.512 195.49C148.796 195.466 149.07 195.432 149.334 195.387C149.598 195.338 149.847 195.277 150.083 195.204C150.322 195.127 150.533 195.036 150.716 194.93C150.902 194.821 151.057 194.695 151.178 194.553C151.304 194.411 151.385 194.249 151.422 194.066C151.398 193.928 151.337 193.804 151.239 193.695C151.142 193.585 151.024 193.494 150.886 193.421C150.752 193.344 150.606 193.285 150.448 193.244C150.294 193.204 150.144 193.183 149.998 193.183C149.811 193.183 149.616 193.206 149.413 193.25C149.214 193.295 149.015 193.356 148.817 193.433C148.622 193.51 148.433 193.601 148.251 193.707C148.072 193.812 147.912 193.928 147.77 194.054ZM158.232 189.422L157.064 190.597L155.907 189.44L154.763 190.584L153.582 189.41L154.751 188.235L155.907 189.391L157.052 188.247L158.232 189.422ZM152.139 196.403C152.139 196.27 152.166 196.144 152.219 196.026C152.267 195.908 152.334 195.807 152.419 195.722C152.505 195.632 152.606 195.563 152.724 195.515C152.841 195.466 152.967 195.442 153.101 195.442H153.777H154.069C154.252 195.442 154.452 195.434 154.672 195.417C154.891 195.401 155.102 195.375 155.305 195.338C155.508 195.302 155.69 195.253 155.852 195.192C156.019 195.127 156.141 195.046 156.218 194.949C156.262 194.88 156.285 194.786 156.285 194.669C156.285 194.494 156.242 194.287 156.157 194.048C156.076 193.808 155.978 193.565 155.865 193.317C155.751 193.07 155.633 192.832 155.512 192.605C155.394 192.378 155.299 192.189 155.226 192.039L156.96 191.187C157.086 191.406 157.208 191.666 157.326 191.966C157.443 192.262 157.549 192.569 157.642 192.885C157.735 193.198 157.81 193.506 157.867 193.81C157.924 194.111 157.952 194.372 157.952 194.596C157.952 195.006 157.879 195.381 157.733 195.722C157.563 196.103 157.33 196.42 157.033 196.671C156.737 196.919 156.382 197.101 155.968 197.219C155.846 197.252 155.694 197.278 155.512 197.298C155.329 197.319 155.144 197.333 154.958 197.341C154.771 197.353 154.595 197.359 154.428 197.359C154.262 197.363 154.132 197.365 154.039 197.365H153.156H153.101C152.967 197.365 152.841 197.341 152.724 197.292C152.606 197.243 152.505 197.174 152.419 197.085C152.334 197 152.267 196.899 152.219 196.781C152.166 196.663 152.139 196.537 152.139 196.403ZM167.694 197.365C166.931 197.365 166.247 197.319 165.643 197.225C165.042 197.136 164.515 197.006 164.06 196.836C163.139 196.479 162.506 195.955 162.161 195.265V195.271C161.966 194.894 161.869 194.476 161.869 194.017C161.869 193.819 161.893 193.603 161.942 193.372C161.99 193.141 162.053 192.916 162.13 192.697C162.228 192.441 162.333 192.216 162.447 192.021C162.561 191.822 162.678 191.613 162.8 191.394L164.23 192.593C164.17 192.678 164.099 192.79 164.017 192.928C163.936 193.062 163.857 193.204 163.78 193.354C163.707 193.504 163.644 193.656 163.591 193.81C163.543 193.961 163.518 194.092 163.518 194.206C163.518 194.287 163.53 194.354 163.555 194.407C163.636 194.573 163.796 194.719 164.036 194.845C164.279 194.971 164.583 195.079 164.949 195.168C165.314 195.253 165.73 195.318 166.197 195.363C166.663 195.407 167.162 195.43 167.694 195.43C167.982 195.43 168.309 195.415 168.674 195.387C169.043 195.359 169.423 195.314 169.812 195.253C170.202 195.188 170.589 195.107 170.975 195.01C171.36 194.908 171.713 194.786 172.034 194.644C171.985 194.454 171.926 194.271 171.857 194.097C171.792 193.922 171.711 193.741 171.614 193.555C171.517 193.364 171.401 193.161 171.267 192.946C171.133 192.731 170.975 192.486 170.792 192.21L172.29 191.236C172.363 191.353 172.448 191.497 172.545 191.668C172.643 191.838 172.74 192.023 172.837 192.222C172.939 192.417 173.036 192.623 173.13 192.843C173.227 193.062 173.312 193.281 173.385 193.5C173.462 193.719 173.521 193.934 173.562 194.145C173.602 194.352 173.619 194.547 173.61 194.73C173.59 195.07 173.472 195.373 173.257 195.637C173.042 195.896 172.766 196.123 172.43 196.318C172.097 196.513 171.719 196.677 171.297 196.811C170.879 196.945 170.453 197.053 170.019 197.134C169.589 197.215 169.171 197.274 168.765 197.31C168.359 197.347 168.002 197.365 167.694 197.365ZM167.737 197.828L169.088 199.179L167.737 200.53L166.385 199.179L167.737 197.828ZM177.625 197.365C177.126 197.365 176.698 197.302 176.341 197.177C175.983 197.055 175.675 196.866 175.415 196.61C175.253 196.448 175.127 196.278 175.038 196.099C174.953 195.921 174.89 195.746 174.849 195.576C174.813 195.401 174.79 195.237 174.782 195.083C174.778 194.928 174.776 194.797 174.776 194.687V194.596C174.78 194.446 174.784 194.23 174.788 193.95C174.796 193.666 174.801 193.334 174.801 192.952C174.801 192.571 174.799 192.151 174.794 191.692C174.79 191.234 174.778 190.777 174.758 190.323C174.742 189.864 174.715 189.424 174.679 189.002C174.646 188.58 174.6 188.212 174.539 187.9L176.359 187.346C176.412 187.614 176.454 187.93 176.487 188.296C176.519 188.657 176.545 189.036 176.566 189.434C176.59 189.832 176.606 190.231 176.614 190.633C176.627 191.035 176.635 191.408 176.639 191.753C176.643 192.057 176.631 192.356 176.602 192.648C176.578 192.936 176.558 193.22 176.541 193.5C176.525 193.776 176.525 194.046 176.541 194.31C176.562 194.569 176.619 194.823 176.712 195.07C176.748 195.164 176.793 195.235 176.846 195.283C176.903 195.332 176.967 195.369 177.041 195.393C177.114 195.413 177.193 195.426 177.278 195.43C177.367 195.434 177.465 195.436 177.57 195.436H177.625C177.755 195.436 177.879 195.462 177.996 195.515C178.114 195.568 178.215 195.639 178.301 195.728C178.39 195.813 178.461 195.914 178.514 196.032C178.566 196.15 178.593 196.274 178.593 196.403C178.593 196.537 178.566 196.663 178.514 196.781C178.461 196.899 178.39 197 178.301 197.085C178.215 197.174 178.114 197.243 177.996 197.292C177.879 197.341 177.755 197.365 177.625 197.365ZM176.647 196.41C176.647 196.28 176.674 196.156 176.727 196.038C176.775 195.921 176.844 195.819 176.933 195.734C177.019 195.645 177.12 195.574 177.238 195.521C177.356 195.468 177.481 195.442 177.615 195.442H178.729C179.176 195.442 179.656 195.399 180.172 195.314C180.687 195.225 181.202 195.109 181.718 194.967C182.237 194.825 182.738 194.667 183.221 194.492C183.708 194.314 184.145 194.133 184.53 193.95C184.278 193.89 183.998 193.804 183.69 193.695C183.382 193.585 183.069 193.478 182.753 193.372C182.436 193.267 182.128 193.177 181.827 193.104C181.531 193.027 181.265 192.991 181.03 192.995C180.88 192.999 180.734 193.031 180.592 193.092C180.454 193.149 180.324 193.222 180.202 193.311C180.085 193.397 179.977 193.49 179.88 193.591C179.786 193.689 179.705 193.782 179.636 193.871C179.567 193.957 179.512 194.03 179.472 194.09C179.435 194.147 179.417 194.176 179.417 194.176L177.974 193.348C178.137 193.048 178.331 192.759 178.559 192.483C178.786 192.203 179.033 191.958 179.301 191.747C179.569 191.532 179.849 191.361 180.141 191.236C180.438 191.11 180.734 191.049 181.03 191.053C181.249 191.057 181.466 191.083 181.681 191.132C181.9 191.181 182.12 191.244 182.339 191.321C182.558 191.394 182.779 191.481 183.002 191.583C183.225 191.68 183.451 191.781 183.678 191.887C183.909 192.001 184.165 192.112 184.445 192.222C184.729 192.331 185.023 192.429 185.327 192.514C185.636 192.599 185.948 192.668 186.265 192.721C186.585 192.774 186.898 192.8 187.202 192.8L186.886 194.596C186.792 194.636 186.687 194.685 186.569 194.742C186.456 194.794 186.354 194.843 186.265 194.888L186.107 194.967C186.2 195.077 186.318 195.164 186.46 195.229C186.606 195.294 186.754 195.342 186.904 195.375C187.058 195.403 187.204 195.421 187.342 195.43C187.484 195.438 187.596 195.442 187.677 195.442H187.762C187.896 195.442 188.022 195.468 188.14 195.521C188.257 195.574 188.359 195.645 188.444 195.734C188.533 195.819 188.602 195.921 188.651 196.038C188.704 196.156 188.73 196.28 188.73 196.41C188.73 196.543 188.704 196.669 188.651 196.787C188.602 196.905 188.533 197.006 188.444 197.091C188.359 197.177 188.257 197.243 188.14 197.292C188.022 197.341 187.896 197.365 187.762 197.365H187.677C187.287 197.365 186.92 197.331 186.575 197.262C186.234 197.193 185.922 197.093 185.638 196.963C185.358 196.83 185.108 196.669 184.889 196.483C184.67 196.292 184.489 196.077 184.347 195.837C183.946 196.032 183.528 196.223 183.093 196.41C182.659 196.592 182.209 196.754 181.742 196.897C181.276 197.039 180.791 197.152 180.287 197.237C179.788 197.327 179.269 197.371 178.729 197.371L177.615 197.365C177.481 197.365 177.356 197.341 177.238 197.292C177.12 197.243 177.019 197.177 176.933 197.091C176.844 197.006 176.775 196.905 176.727 196.787C176.674 196.669 176.647 196.543 176.647 196.41ZM181 187.827L182.351 189.178L181 190.53L179.648 189.178L181 187.827ZM186.769 196.403C186.769 196.27 186.793 196.144 186.842 196.026C186.891 195.908 186.96 195.807 187.049 195.722C187.134 195.632 187.236 195.563 187.353 195.515C187.471 195.466 187.597 195.442 187.731 195.442H188.193C188.486 195.442 188.766 195.43 189.033 195.405C189.305 195.381 189.545 195.33 189.752 195.253C189.959 195.172 190.125 195.06 190.251 194.918C190.381 194.772 190.45 194.579 190.458 194.34C190.462 194.251 190.462 194.178 190.458 194.121C190.458 194.06 190.448 193.989 190.427 193.908C190.407 193.823 190.377 193.713 190.336 193.579C190.3 193.441 190.247 193.248 190.178 193.001L191.949 192.502C192.026 192.697 192.097 192.954 192.162 193.275C192.227 193.595 192.276 193.946 192.308 194.328C192.316 194.45 192.331 194.575 192.351 194.705C192.371 194.835 192.404 194.955 192.448 195.064C192.497 195.174 192.562 195.265 192.643 195.338C192.724 195.407 192.83 195.442 192.96 195.442C193.093 195.442 193.219 195.466 193.337 195.515C193.455 195.563 193.556 195.632 193.641 195.722C193.731 195.807 193.8 195.908 193.848 196.026C193.901 196.144 193.927 196.27 193.927 196.403C193.927 196.537 193.901 196.663 193.848 196.781C193.8 196.899 193.731 197 193.641 197.085C193.552 197.174 193.449 197.243 193.331 197.292C193.217 197.341 193.095 197.365 192.966 197.365C192.576 197.365 192.241 197.304 191.961 197.183C191.685 197.065 191.448 196.911 191.249 196.72C191.066 196.842 190.855 196.943 190.616 197.024C190.381 197.106 190.129 197.17 189.861 197.219C189.593 197.272 189.317 197.308 189.033 197.329C188.749 197.353 188.469 197.365 188.193 197.365H187.731C187.597 197.365 187.471 197.341 187.353 197.292C187.236 197.243 187.134 197.174 187.049 197.085C186.96 197 186.891 196.899 186.842 196.781C186.793 196.663 186.769 196.537 186.769 196.403ZM192.813 190.536L191.645 191.71L190.488 190.554L189.344 191.698L188.163 190.523L189.332 189.349L190.488 190.505L191.633 189.361L192.813 190.536ZM192.06 196.403C192.06 196.27 192.086 196.144 192.139 196.026C192.188 195.908 192.255 195.807 192.34 195.722C192.425 195.632 192.527 195.563 192.644 195.515C192.762 195.466 192.888 195.442 193.022 195.442H193.649H193.923C194.073 195.442 194.229 195.436 194.391 195.423C194.558 195.411 194.712 195.387 194.854 195.35C195 195.314 195.128 195.263 195.237 195.198C195.351 195.133 195.432 195.046 195.481 194.937C195.513 194.863 195.53 194.754 195.53 194.608C195.53 194.51 195.501 194.364 195.444 194.17C195.388 193.975 195.313 193.76 195.219 193.524C195.126 193.285 195.02 193.035 194.903 192.776C194.785 192.516 194.665 192.27 194.544 192.039L196.284 191.175C196.398 191.43 196.51 191.702 196.619 191.99C196.733 192.279 196.834 192.571 196.924 192.867C197.013 193.163 197.084 193.459 197.137 193.756C197.193 194.048 197.222 194.328 197.222 194.596C197.222 195.006 197.149 195.381 197.003 195.722C196.832 196.103 196.599 196.42 196.303 196.671C196.006 196.919 195.651 197.101 195.237 197.219C194.994 197.288 194.761 197.329 194.537 197.341C194.314 197.357 194.105 197.365 193.911 197.365H193.077H193.022C192.888 197.365 192.762 197.341 192.644 197.292C192.527 197.243 192.425 197.174 192.34 197.085C192.255 197 192.188 196.899 192.139 196.781C192.086 196.663 192.06 196.537 192.06 196.403ZM195.073 187.736L196.424 189.087L195.073 190.438L193.722 189.087L195.073 187.736ZM198.124 197.383C198.145 197.051 198.165 196.706 198.185 196.349C198.206 195.992 198.222 195.639 198.234 195.29C198.25 194.941 198.26 194.602 198.264 194.273C198.268 193.944 198.264 193.642 198.252 193.366C198.228 192.79 198.204 192.285 198.179 191.85C198.159 191.412 198.137 191.025 198.112 190.688C198.092 190.351 198.07 190.057 198.045 189.805C198.025 189.55 198.003 189.316 197.978 189.105C197.954 188.894 197.928 188.697 197.899 188.515C197.871 188.328 197.84 188.135 197.808 187.937L199.689 187.316C199.778 187.859 199.849 188.407 199.902 188.959C199.959 189.511 200.001 190.041 200.03 190.548C200.058 191.051 200.076 191.52 200.084 191.954C200.097 192.388 200.103 192.759 200.103 193.068C200.103 193.348 200.101 193.65 200.097 193.975C200.097 194.299 200.092 194.636 200.084 194.985C200.08 195.334 200.072 195.687 200.06 196.044C200.048 196.401 200.03 196.75 200.005 197.091L198.124 197.383Z" fill="#1B92FF"/>
<path d="M146.327 173.576H153.773C153.773 172.195 154.892 171.076 156.273 171.076H168.719C170.099 171.076 171.219 172.195 171.219 173.576H178.664C178.664 172.195 179.784 171.076 181.164 171.076H187.387C187.77 171.076 188.149 171.038 188.518 170.965C188.951 170.879 189.38 170.91 189.772 171.036C189.96 170.67 190.241 170.344 190.608 170.099C190.922 169.89 191.216 169.649 191.487 169.378C191.757 169.107 191.998 168.813 192.208 168.5C192.453 168.133 192.778 167.852 193.145 167.664C193.018 167.272 192.987 166.843 193.073 166.41C193.147 166.04 193.185 165.662 193.185 165.279V159.056C193.185 157.676 194.304 156.556 195.685 156.556V151.185H189.462C188.081 151.185 186.962 150.066 186.962 148.685H179.516C179.516 150.066 178.396 151.185 177.016 151.185H176.829L180.858 155.214C181.573 155.929 181.787 157.005 181.4 157.939C181.013 158.873 180.101 159.482 179.09 159.482H172.867C171.486 159.482 170.367 158.363 170.367 156.982H162.921C162.921 158.363 161.802 159.482 160.421 159.482H147.975C146.595 159.482 145.475 158.363 145.475 156.982H138.03C138.03 158.363 136.91 159.482 135.53 159.482H131.807V165.279C131.807 165.662 131.844 166.04 131.918 166.41C132.004 166.843 131.973 167.272 131.846 167.664C132.213 167.852 132.538 168.133 132.784 168.5C132.993 168.813 133.234 169.107 133.505 169.378C133.775 169.649 134.07 169.89 134.383 170.099C134.75 170.344 135.031 170.67 135.219 171.036C135.611 170.91 136.04 170.879 136.473 170.965C136.843 171.038 137.221 171.076 137.604 171.076H143.827C145.208 171.076 146.327 172.195 146.327 173.576ZM135.831 150.458C134.855 149.482 133.272 149.482 132.295 150.458L129.307 153.447V149.111C130.687 149.111 131.807 147.992 131.807 146.611V134.166C131.807 132.785 130.687 131.666 129.307 131.666V124.221C130.687 124.221 131.807 123.101 131.807 121.721V115.498C131.807 115.115 131.844 114.737 131.918 114.367C132.004 113.934 131.973 113.505 131.846 113.113C132.213 112.925 132.538 112.644 132.784 112.277C132.993 111.964 133.234 111.669 133.505 111.399C133.775 111.128 134.07 110.887 134.383 110.678C134.75 110.433 135.031 110.107 135.219 109.741C135.611 109.867 136.04 109.898 136.473 109.812C136.843 109.739 137.221 109.701 137.604 109.701H143.827C145.208 109.701 146.327 108.582 146.327 107.201H153.773C153.773 108.582 154.892 109.701 156.273 109.701H168.719C170.099 109.701 171.219 108.582 171.219 107.201H178.664C178.664 108.582 179.784 109.701 181.164 109.701H187.387C187.77 109.701 188.149 109.739 188.518 109.812C188.951 109.898 189.38 109.867 189.772 109.741C189.96 110.107 190.241 110.433 190.608 110.678C190.922 110.887 191.216 111.128 191.487 111.399C191.757 111.669 191.998 111.964 192.208 112.277C192.453 112.644 192.778 112.925 193.145 113.113C193.018 113.505 192.987 113.934 193.073 114.367C193.147 114.737 193.185 115.115 193.185 115.498V121.721C193.185 123.101 194.304 124.221 195.685 124.221V131.666C194.304 131.666 193.185 132.785 193.185 134.166V143.182C193.082 142.743 192.86 142.325 192.518 141.983L190.873 140.338L190.872 140.338C190.369 139.834 189.82 139.386 189.236 138.996C188.576 138.555 187.783 138.469 187.081 138.695C186.745 138.04 186.123 137.539 185.345 137.384C184.656 137.247 183.951 137.177 183.239 137.177C182.526 137.177 181.821 137.247 181.133 137.384C180.354 137.539 179.733 138.04 179.396 138.695C178.695 138.469 177.901 138.555 177.241 138.996C176.657 139.386 176.109 139.834 175.605 140.338L175.605 140.338L173.96 141.983C173.213 142.73 173.037 143.833 173.434 144.747C172.52 144.35 171.417 144.525 170.67 145.273L169.025 146.918C169.025 146.918 169.025 146.918 169.025 146.918L166.589 144.481C167.565 143.505 167.565 141.922 166.589 140.946L161.832 136.19L161.832 136.189C161.328 135.686 160.78 135.237 160.196 134.847C159.536 134.406 158.742 134.321 158.041 134.546C157.704 133.891 157.083 133.39 156.304 133.236C155.616 133.099 154.911 133.028 154.198 133.028C153.486 133.028 152.781 133.099 152.092 133.236C151.314 133.39 150.692 133.891 150.356 134.546C149.654 134.321 148.861 134.406 148.201 134.847C147.617 135.237 147.068 135.686 146.565 136.189L146.564 136.19L141.808 140.946C140.832 141.922 140.832 143.505 141.808 144.481L135.831 150.458Z" stroke="#B5B5B5" stroke-width="5" stroke-linecap="round" stroke-linejoin="round" stroke-dasharray="10 10"/>
<defs>
<filter id="filter0_d_1387_1781" x="0" y="0" width="326.994" height="317.874" filterUnits="userSpaceOnUse" color-interpolation-filters="sRGB">
<feFlood flood-opacity="0" result="BackgroundImageFix"/>
<feColorMatrix in="SourceAlpha" type="matrix" values="0 0 0 0 0 0 0 0 0 0 0 0 0 0 0 0 0 0 127 0" result="hardAlpha"/>
<feOffset/>
<feGaussianBlur stdDeviation="7.5"/>
<feColorMatrix type="matrix" values="0 0 0 0 0.516638 0 0 0 0 0.516638 0 0 0 0 0.516638 0 0 0 0.25 0"/>
<feBlend mode="normal" in2="BackgroundImageFix" result="effect1_dropShadow_1387_1781"/>
<feBlend mode="normal" in="SourceGraphic" in2="effect1_dropShadow_1387_1781" result="shape"/>
</filter>
</defs>
</svg>
