<svg width="30" height="27" viewBox="0 0 30 27" fill="none" xmlns="http://www.w3.org/2000/svg">
<g id="hand-holding-heart-solid 1" clip-path="url(#clip0_779_1474)">
<path id="Vector" d="M14.3385 13.2094C14.7031 13.5996 15.2969 13.5996 15.6667 13.2094L21.3385 7.18712C22.9844 5.43634 22.8906 2.53595 21.0469 0.922279C19.4427 -0.485729 17.0521 -0.232604 15.5833 1.32833L15 1.94533L14.4219 1.33361C12.9531 -0.232604 10.5625 -0.485729 8.95833 0.922279C7.11979 2.53595 7.02083 5.43634 8.66667 7.18712L14.3385 13.2094ZM29.4427 17.3016C28.8281 16.7373 27.8698 16.7742 27.224 17.3016L22.4115 21.1986C21.8229 21.6785 21.0885 21.9369 20.3281 21.9369H14.1667C13.7083 21.9369 13.3333 21.5572 13.3333 21.0932C13.3333 20.6291 13.7083 20.2494 14.1667 20.2494H18.2448C19.0729 20.2494 19.8437 19.6746 19.9792 18.8467C20.151 17.792 19.349 16.8744 18.3333 16.8744H10C8.59375 16.8744 7.23437 17.3649 6.14062 18.2613L3.71875 20.2494H0.833333C0.375 20.2494 0 20.6291 0 21.0932V26.1557C0 26.6197 0.375 26.9994 0.833333 26.9994H19.4167C20.1719 26.9994 20.9062 26.741 21.5 26.2611L29.375 19.8803C30.1667 19.2422 30.2292 18.0188 29.4427 17.3016Z" fill="#61646B"/>
</g>
<defs>
<clipPath id="clip0_779_1474">
<rect width="30" height="27" fill="white"/>
</clipPath>
</defs>
</svg>
