<svg width="148" height="527" viewBox="0 0 148 527" fill="none" xmlns="http://www.w3.org/2000/svg">
<path fill-rule="evenodd" clip-rule="evenodd" d="M0 61.3493C3.65543 60.8044 7.39512 60.522 11.1992 60.522C53.0045 60.522 86.909 94.5032 86.909 136.232V526.9H88.1363V136.232C88.1363 93.8128 53.6181 59.2947 11.1992 59.2947C7.39623 59.2947 3.65677 59.5721 0 60.1078V61.3493Z" fill="#219D80"/>
<path fill-rule="evenodd" clip-rule="evenodd" d="M0 81.4387C3.61942 80.7001 7.36496 80.3123 11.1995 80.3123C42.0357 80.3123 67.1955 105.395 67.1955 136.232V526.9H68.3461V136.232C68.3461 104.705 42.726 79.085 11.1995 79.085C7.36724 79.085 3.62228 79.4635 0 80.1852V81.4387Z" fill="#219D80"/>
<path fill-rule="evenodd" clip-rule="evenodd" d="M0 41.3829C3.67379 40.9527 7.41095 40.7315 11.1992 40.7315C63.8969 40.7315 106.699 83.534 106.699 136.232V526.9H107.927V136.232C107.927 82.9203 64.5106 39.5809 11.1992 39.5809C7.41184 39.5809 3.67477 39.7997 0 40.2252V41.3829Z" fill="#219D80"/>
<path fill-rule="evenodd" clip-rule="evenodd" d="M0 21.4799C3.68546 21.1234 7.42123 20.9409 11.199 20.9409C74.789 20.9409 126.49 72.6414 126.49 136.231V526.9H127.64V136.231C127.64 72.0277 75.4027 19.7903 11.199 19.7903C7.42182 19.7903 3.6861 19.9711 0 20.3245V21.4799Z" fill="#219D80"/>
<path fill-rule="evenodd" clip-rule="evenodd" d="M0 1.61043C3.69332 1.3059 7.42828 1.1506 11.1988 1.1506C85.6813 1.1506 146.28 61.7491 146.28 136.232V526.9H147.43V136.232C147.43 61.1354 86.3716 0 11.1988 0C7.42871 0 3.69378 0.154088 0 0.456294V1.61043Z" fill="#219D80"/>
</svg>
