<svg width="588" height="394" viewBox="0 0 588 394" fill="none" xmlns="http://www.w3.org/2000/svg">
<path d="M588 393.433V3.05176e-05L518.075 70.1548C487.004 101.41 487.004 152.087 518.075 183.343L519.767 184.985C523.996 189.231 523.996 196.139 519.767 200.442C515.481 204.689 508.602 204.689 504.372 200.442L410.651 106.336C395.933 91.558 372.023 91.558 357.305 106.336C342.531 121.115 342.531 145.123 357.305 159.901L492.53 295.737C496.534 299.701 496.534 306.156 492.53 310.176C488.583 314.14 482.155 314.14 478.151 310.176L386.854 218.448C360.745 192.289 318.509 192.289 292.456 218.448C266.347 244.608 266.347 287.074 292.456 313.234L352.174 373.197L316.027 378.179L151.93 213.409C133.265 194.61 102.927 194.61 84.2051 213.409C65.5398 232.207 65.5398 262.67 84.2051 281.412C93.0585 290.302 132.306 329.711 138.002 335.43C141.667 339.11 141.667 345.112 137.946 348.849L137.776 349.019C134.224 352.586 128.415 352.586 124.863 349.019L107.889 331.976C87.4194 311.422 54.1489 311.422 33.6227 331.976L0 393.433" fill="#F3FFFD" fill-opacity="0.2"/>
</svg>
