<svg width="34" height="30" viewBox="0 0 34 30" fill="none" xmlns="http://www.w3.org/2000/svg">
<path d="M12.5406 0C11.9696 0 11.5068 0.462883 11.5068 1.03388C11.5068 1.76915 10.7576 2.27301 10.0481 2.07991C8.98335 1.79011 7.88403 1.64224 6.78471 1.64224C5.46319 1.64224 4.14166 1.85355 2.87176 2.27745C-0.31263 3.34041 -0.314103 7.38315 2.02267 9.7935L3.43804 11.2534C3.70379 11.5275 4.06928 11.6823 4.45107 11.6823C5.23031 11.6823 5.86201 12.314 5.86201 13.0932V13.1564C5.86201 13.5395 6.00722 13.912 6.29243 14.1678C7.23284 15.011 8.31511 15.6021 9.45346 15.9448C10.5624 16.2787 11.4887 17.2034 11.4887 18.3615C11.4887 19.558 10.5187 20.5279 9.32225 20.5279H8.7839C7.29009 20.5279 6.07912 21.7389 6.07912 23.2327V26.1265C6.07912 28.1793 7.70741 29.8588 9.69755 29.8588H27.7897C30.793 29.8588 33.2173 27.3581 33.2173 24.2603V9.99999C33.2173 4.47715 28.7402 0 23.2173 0H12.5406ZM-nan -nanL9.49854 11.9622V9.95605C9.49854 8.84809 8.60036 7.94991 7.4924 7.94991H5.97037C5.58886 7.94991 5.22364 7.79531 4.95809 7.52139C4.25936 6.80067 4.52855 5.6096 5.52206 5.46605C5.93958 5.40573 6.36145 5.37505 6.78471 5.37459C9.20906 5.37459 11.4706 6.345 13.1893 8.09921L15.3785 10.3573C15.5801 10.5653 15.5801 10.8958 15.3785 11.1037C14.9239 11.5771 14.3829 11.9528 13.7866 12.2091C13.1903 12.4654 12.5507 12.5971 11.9048 12.5967C11.0545 12.5967 10.2222 12.3728 9.49854 11.9622L-nan -nanZM29.5989 24.2603C29.5989 25.2867 28.7848 26.1265 27.7897 26.1265C26.7946 26.1265 25.9805 25.2867 25.9805 24.2603C25.9805 22.199 24.3094 20.5279 22.2481 20.5279H18.0247C16.4234 20.5279 15.1252 19.2298 15.1252 17.6284C15.1252 16.4574 15.8601 15.439 16.8107 14.7551C17.2101 14.4678 17.5905 14.1407 17.9476 13.7724C18.1457 13.568 18.4734 13.5677 18.6719 13.7717L22.9013 18.1189C23.239 18.466 23.7027 18.6618 24.1869 18.6618C25.1775 18.6618 25.9805 17.8587 25.9805 16.8682V16.7911C25.9805 16.3034 25.79 15.835 25.4496 15.4857L15.3586 5.12894C15.2089 4.97534 15.1252 4.76937 15.1252 4.55491C15.1252 4.10062 15.4935 3.73235 15.9478 3.73235H22.3621C26.3589 3.73235 29.5989 6.97241 29.5989 10.9692V24.2603Z" fill="#4D7AD2"/>
</svg>
