<svg width="30" height="30" viewBox="0 0 30 30" fill="none" xmlns="http://www.w3.org/2000/svg">
<path fill-rule="evenodd" clip-rule="evenodd" d="M9.96002 2.83351C8.08052 2.35801 5.92052 2.86648 4.39352 4.39348C2.86652 5.92048 2.35797 8.08049 2.83347 9.96149C1.16847 10.953 0 12.8415 0 15C0 17.1585 1.16847 19.047 2.83347 20.04C2.35797 21.9195 2.86652 24.0795 4.39352 25.6065C5.92052 27.1335 8.08049 27.642 9.96149 27.1665C10.953 28.8315 12.8415 30 15 30C17.1585 30 19.047 28.8315 20.04 27.1665C21.9195 27.642 24.0795 27.1335 25.6065 25.6065C27.1335 24.0795 27.642 21.9195 27.1665 20.0385C28.8315 19.047 30 17.1585 30 15C30 12.8415 28.8315 10.953 27.1665 9.96002C27.642 8.08052 27.1335 5.92048 25.6065 4.39348C24.0795 2.86648 21.9195 2.35801 20.0385 2.83351C19.047 1.16851 17.1585 0 15 0C12.8415 0 10.953 1.16851 9.96002 2.83351ZM9.94052 6.0585C10.3575 6.3405 10.89 6.39451 11.3565 6.20251C11.8215 6.00901 12.159 5.59499 12.255 5.09999C12.4845 3.90449 13.6515 3 15 3C16.3485 3 17.5155 3.90449 17.745 5.09999C17.841 5.59499 18.1785 6.00901 18.6435 6.20251C19.11 6.39451 19.6425 6.3405 20.0595 6.0585C21.066 5.376 22.5315 5.56198 23.4855 6.51448C24.438 7.46848 24.624 8.93402 23.9415 9.94052C23.6595 10.3575 23.6055 10.89 23.7975 11.3565C23.991 11.8215 24.405 12.159 24.9 12.255C26.0955 12.4845 27 13.6515 27 15C27 16.3485 26.0955 17.5155 24.9 17.745C24.405 17.841 23.991 18.1785 23.7975 18.6435C23.6055 19.11 23.6595 19.6425 23.9415 20.0595C24.624 21.066 24.438 22.5315 23.4855 23.4855C22.5315 24.438 21.066 24.624 20.0595 23.9415C19.6425 23.6595 19.11 23.6055 18.6435 23.7975C18.1785 23.991 17.841 24.405 17.745 24.9C17.5155 26.0955 16.3485 27 15 27C13.6515 27 12.4845 26.0955 12.255 24.9C12.159 24.405 11.8215 23.991 11.3565 23.7975C10.89 23.6055 10.3575 23.6595 9.94052 23.9415C8.93402 24.624 7.46853 24.438 6.51453 23.4855C5.56203 22.5315 5.376 21.066 6.0585 20.0595C6.3405 19.6425 6.39451 19.11 6.20251 18.6435C6.00901 18.1785 5.59504 17.841 5.10004 17.745C3.90454 17.5155 3 16.3485 3 15C3 13.6515 3.90454 12.4845 5.10004 12.255C5.59504 12.159 6.00901 11.8215 6.20251 11.3565C6.39451 10.89 6.3405 10.3575 6.0585 9.94052C5.376 8.93402 5.56203 7.46848 6.51453 6.51448C7.46853 5.56198 8.93402 5.376 9.94052 6.0585ZM9.43954 16.0575L12.4725 19.0905C13.0575 19.6755 14.007 19.6755 14.5935 19.0905L20.5605 13.1235C21.1455 12.537 21.1455 11.5875 20.5605 11.001C19.9755 10.416 19.0245 10.416 18.4395 11.001L13.533 15.909L11.5605 13.9365C10.9755 13.3515 10.0245 13.3515 9.43954 13.9365C8.85454 14.5215 8.85454 15.4725 9.43954 16.0575Z" fill="white"/>
</svg>
