<svg width="8" height="10" viewBox="0 0 8 10" fill="none" xmlns="http://www.w3.org/2000/svg">
<path d="M7.99977 3.99427C7.99977 3.89695 7.99507 3.69759 7.97623 3.44801C7.9464 3.05715 7.87891 2.5156 7.7188 2.15143C7.52886 1.71819 7.16155 1.37599 6.71261 1.21274C6.31234 1.06833 5.72213 1.0181 5.29674 1.00083C5.02204 0.989845 4.80542 0.992985 4.70025 0.996124C4.44595 1.0024 4.3298 1.00554 4.22933 1.11542L0.135535 5.52002C0.0429224 5.62049 -0.00573858 5.75077 0.000540254 5.88734C0.00681909 6.0239 0.066468 6.14948 0.168499 6.24209L3.09444 8.87606C3.19176 8.96396 3.31419 9.00635 3.43663 9.00635C3.57477 9.00635 3.7129 8.95141 3.81179 8.8431L7.90559 4.43849C8.00134 4.33646 8.00134 4.22187 7.99977 3.99427ZM7.37189 4.09159L3.42878 8.33294L0.678654 5.85594L4.61077 1.62715C4.94355 1.60988 5.98741 1.61773 6.49756 1.80295C6.78639 1.90812 7.02185 2.12788 7.14428 2.40415C7.33736 2.84524 7.37817 3.78236 7.37189 4.09159Z" fill="#4D7AD2"/>
<path d="M5.78186 2.28174C5.33292 2.28174 4.96875 2.64748 4.96875 3.09485C4.96875 3.54221 5.33449 3.90796 5.78186 3.90796C6.22923 3.90796 6.59497 3.54221 6.59497 3.09485C6.59497 2.64748 6.2308 2.28174 5.78186 2.28174ZM5.78186 3.28164C5.67983 3.28164 5.59663 3.19845 5.59663 3.09642C5.59663 2.99439 5.67983 2.91119 5.78186 2.91119C5.88389 2.91119 5.96708 2.99439 5.96708 3.09642C5.96708 3.19845 5.88389 3.28164 5.78186 3.28164Z" fill="#4D7AD2"/>
</svg>
