<svg width="41" height="42" viewBox="0 0 41 42" fill="none" xmlns="http://www.w3.org/2000/svg">
<path d="M38.6087 11.4829C38.17 9.85167 36.8838 8.56579 35.2528 8.12655C32.2732 7.31128 20.3544 7.31128 20.3544 7.31128C20.3544 7.31128 8.43607 7.31128 5.45643 8.09564C3.8568 8.53441 2.53931 9.85191 2.10053 11.4829C1.31641 14.4623 1.31641 20.6412 1.31641 20.6412C1.31641 20.6412 1.31641 26.8512 2.10053 29.7995C2.53978 31.4305 3.82543 32.7164 5.45667 33.1556C8.46745 33.9711 20.3549 33.9711 20.3549 33.9711C20.3549 33.9711 32.2732 33.9711 35.2528 33.1868C36.8841 32.7478 38.17 31.4619 38.6092 29.8309C39.3931 26.8512 39.3931 20.6726 39.3931 20.6726C39.3931 20.6726 39.4245 14.4623 38.6087 11.4829ZM16.5597 26.3495V14.9329L26.4708 20.6412L16.5597 26.3495Z" fill="white"/>
</svg>
