<svg width="21" height="25" viewBox="0 0 21 25" fill="none" xmlns="http://www.w3.org/2000/svg">
<g clip-path="url(#clip0_1166_133)">
<path d="M12.9999 2.18695V3.70422H7.31307V2.18695C7.31307 1.34913 6.67775 0.669678 5.89137 0.669678C5.10499 0.669678 4.46966 1.34913 4.46966 2.18695V3.70422H2.33711C1.15976 3.70422 0.204554 4.72316 0.204554 5.98012V8.25603H20.1084V5.98012C20.1084 4.72316 19.1536 3.70422 17.9758 3.70422H15.8433V2.18695C15.8433 1.34913 15.208 0.669678 14.4216 0.669678C13.6352 0.669678 12.9999 1.34913 12.9999 2.18695ZM20.1084 9.7733H0.204554V22.6701C0.204554 23.9266 1.15976 24.946 2.33711 24.946H17.9758C19.1536 24.946 20.1084 23.9266 20.1084 22.6701V9.7733ZM17.265 15.0837C17.265 15.501 16.9469 15.8424 16.5541 15.8424H15.1324C14.7415 15.8424 14.4216 15.501 14.4216 15.0837V13.5665C14.4216 13.1492 14.7415 12.8078 15.1324 12.8078H16.5541C16.9469 12.8078 17.265 13.1492 17.265 13.5665V15.0837ZM11.5782 15.0837C11.5782 15.501 11.2583 15.8424 10.8673 15.8424H9.44562C9.05466 15.8424 8.73477 15.501 8.73477 15.0837V13.5665C8.73477 13.1492 9.05466 12.8078 9.44562 12.8078H10.8673C11.2583 12.8078 11.5782 13.1492 11.5782 13.5665V15.0837ZM5.18051 12.8078C5.57148 12.8078 5.89137 13.1492 5.89137 13.5665V15.0837C5.89137 15.501 5.57148 15.8424 5.18051 15.8424H3.75881C3.36784 15.8424 3.04796 15.501 3.04796 15.0837V13.5665C3.04796 13.1492 3.36784 12.8078 3.75881 12.8078H5.18051ZM17.265 21.1528C17.265 21.5701 16.9469 21.9115 16.5541 21.9115H15.1324C14.7415 21.9115 14.4216 21.5701 14.4216 21.1528V19.6356C14.4216 19.2183 14.7415 18.8769 15.1324 18.8769H16.5541C16.9469 18.8769 17.265 19.2183 17.265 19.6356V21.1528ZM10.8673 18.8769C11.2583 18.8769 11.5782 19.2183 11.5782 19.6356V21.1528C11.5782 21.5701 11.2583 21.9115 10.8673 21.9115H9.44562C9.05466 21.9115 8.73477 21.5701 8.73477 21.1528V19.6356C8.73477 19.2183 9.05466 18.8769 9.44562 18.8769H10.8673ZM5.89137 21.1528C5.89137 21.5701 5.57148 21.9115 5.18051 21.9115H3.75881C3.36784 21.9115 3.04796 21.5701 3.04796 21.1528V19.6356C3.04796 19.2183 3.36784 18.8769 3.75881 18.8769H5.18051C5.57148 18.8769 5.89137 19.2183 5.89137 19.6356V21.1528Z" fill="#999999"/>
</g>
<defs>
<clipPath id="clip0_1166_133">
<rect width="19.9038" height="24.2763" fill="white" transform="matrix(-1 0 0 1 20.1084 0.669678)"/>
</clipPath>
</defs>
</svg>
