<svg width="32" height="32" viewBox="0 0 32 32" fill="none" xmlns="http://www.w3.org/2000/svg">
<circle cx="16" cy="16" r="16" fill="#4D7AD2"/>
<g clip-path="url(#clip0_2273_692)">
<path d="M20.9422 7.47484C19.4337 6.59442 17.7862 6.1543 16 6.1543C14.2135 6.1543 12.566 6.59442 11.0575 7.47484C9.54906 8.35529 8.3546 9.54976 7.47435 11.058C6.59393 12.5667 6.15381 14.2141 6.15381 16.0005C6.15381 17.9919 6.69631 19.7996 7.78194 21.4233C8.86735 23.0475 10.2903 24.2482 12.0512 25.0258C12.0168 24.1113 12.0724 23.3551 12.2179 22.7568L13.487 17.3978C13.2733 16.9791 13.1666 16.4578 13.1666 15.8337C13.1666 15.1073 13.3503 14.5003 13.7178 14.0133C14.0851 13.526 14.534 13.2823 15.0639 13.2823C15.4912 13.2823 15.8204 13.4232 16.0512 13.7055C16.2819 13.9875 16.3974 14.3423 16.3974 14.7695C16.3974 15.0347 16.3481 15.3574 16.2501 15.7376C16.1516 16.118 16.0235 16.5581 15.8655 17.0581C15.7074 17.558 15.5942 17.9575 15.5257 18.2568C15.4058 18.778 15.5043 19.2246 15.8206 19.5965C16.1366 19.9683 16.5556 20.1541 17.077 20.1541C17.9916 20.1541 18.7416 19.6457 19.3271 18.6286C19.9126 17.6114 20.2053 16.3764 20.2053 14.9233C20.2053 13.8037 19.8443 12.8933 19.122 12.1925C18.3997 11.4918 17.3931 11.1412 16.1028 11.1412C14.6582 11.1412 13.4893 11.6051 12.5964 12.5321C11.7032 13.4596 11.2567 14.5687 11.2567 15.8589C11.2567 16.6282 11.4747 17.2737 11.9105 17.795C12.0557 17.966 12.1028 18.1496 12.0516 18.346C12.0343 18.3974 12.0002 18.5256 11.949 18.7305C11.8978 18.9355 11.8635 19.0683 11.8464 19.128C11.7779 19.4017 11.6156 19.4872 11.359 19.3844C10.7009 19.1109 10.2008 18.6367 9.8591 17.9614C9.5172 17.2863 9.34634 16.5043 9.34634 15.6154C9.34634 15.0427 9.43812 14.47 9.62186 13.8973C9.80561 13.3247 10.0917 12.7714 10.4809 12.237C10.8696 11.7032 11.3355 11.2306 11.8785 10.8205C12.4212 10.4101 13.0815 10.0813 13.8593 9.83303C14.6369 9.58539 15.4747 9.46138 16.3722 9.46138C17.5858 9.46138 18.6756 9.73065 19.6414 10.269C20.6071 10.8075 21.3444 11.5042 21.853 12.3588C22.3613 13.2135 22.6158 14.1278 22.6158 15.1026C22.6158 16.3846 22.3934 17.5385 21.9492 18.5642C21.5047 19.5899 20.8764 20.3954 20.0644 20.9808C19.2522 21.5662 18.3291 21.859 17.2951 21.859C16.7736 21.859 16.2865 21.7372 15.8335 21.4935C15.3802 21.2498 15.0683 20.9614 14.8975 20.628C14.5129 22.1407 14.2821 23.0428 14.2052 23.3331C14.0426 23.9401 13.7093 24.6407 13.205 25.4357C14.1196 25.7091 15.0512 25.8458 16 25.8458C17.7862 25.8458 19.4337 25.4057 20.9422 24.5255C22.4506 23.645 23.6451 22.4506 24.5256 20.9419C25.4058 19.4334 25.8461 17.7861 25.8461 15.9996C25.8461 14.2131 25.4058 12.5659 24.5256 11.0572C23.6453 9.54976 22.4506 8.35529 20.9422 7.47484Z" fill="#DADADA"/>
</g>
<defs>
<clipPath id="clip0_2273_692">
<rect width="19.6923" height="19.6923" fill="white" transform="translate(6.15381 6.15381)"/>
</clipPath>
</defs>
</svg>
