<svg width="32" height="32" viewBox="0 0 32 32" fill="none" xmlns="http://www.w3.org/2000/svg">
<circle cx="16" cy="16" r="16" fill="#4D7AD2"/>
<g clip-path="url(#clip0_2273_678)">
<path d="M25.8461 9.89415C25.1138 10.2154 24.3335 10.4283 23.52 10.5317C24.3569 10.032 24.9957 9.24677 25.296 8.30031C24.5157 8.76554 23.6541 9.09415 22.736 9.27754C21.995 8.48862 20.939 8 19.787 8C17.552 8 15.7526 9.81415 15.7526 12.0382C15.7526 12.3582 15.7797 12.6658 15.8461 12.9588C12.4898 12.7951 9.51996 11.1865 7.52489 8.736C7.17658 9.34031 6.97227 10.032 6.97227 10.7766C6.97227 12.1748 7.69227 13.4142 8.7655 14.1317C8.11689 14.1194 7.48058 13.9311 6.9415 13.6345C6.9415 13.6468 6.9415 13.6628 6.9415 13.6788C6.9415 15.6406 8.34089 17.2702 10.176 17.6455C9.84735 17.7354 9.48919 17.7785 9.1175 17.7785C8.85904 17.7785 8.59812 17.7637 8.35319 17.7095C8.87627 19.3083 10.3606 20.4837 12.1255 20.5218C10.752 21.5963 9.00796 22.2437 7.11996 22.2437C6.78889 22.2437 6.47135 22.2289 6.15381 22.1883C7.94212 23.3415 10.0615 24 12.347 24C19.776 24 23.8375 17.8462 23.8375 12.512C23.8375 12.3335 23.8313 12.1612 23.8227 11.9902C24.624 11.4215 25.2972 10.7114 25.8461 9.89415Z" fill="#DADADA"/>
</g>
<defs>
<clipPath id="clip0_2273_678">
<rect width="19.6923" height="19.6923" fill="white" transform="translate(6.15381 6.15381)"/>
</clipPath>
</defs>
</svg>
